{"glyphs":{"0":{"ha":642,"x_min":31,"x_max":610,"o":"m 486 832 q 528 780 514 807 q 549 725 543 753 q 556 667 556 697 q 556 604 556 636 l 556 357 q 538 272 556 310 q 492 206 521 233 q 426 162 464 178 q 347 144 388 146 q 267 156 307 142 q 192 201 226 169 q 150 253 164 226 q 130 308 136 281 q 123 367 124 336 q 122 429 122 397 l 122 676 q 160 797 122 746 q 253 871 197 847 q 372 887 308 894 q 486 832 435 879 m 528 583 q 529 640 528 613 q 527 694 531 667 q 514 747 524 721 q 482 799 504 772 q 382 858 439 847 q 274 851 325 869 q 186 786 222 832 q 150 676 150 740 l 150 450 q 149 394 150 421 q 151 340 147 367 q 164 286 154 313 q 196 235 174 260 q 297 175 239 186 q 406 183 354 164 q 492 247 457 201 q 528 357 528 292 l 528 583 m 474 492 q 474 455 474 481 q 474 401 475 429 q 472 347 474 372 q 465 308 469 321 q 401 238 444 257 q 315 226 358 218 q 238 268 271 235 q 204 357 204 301 l 204 542 q 203 578 204 553 q 203 633 203 604 q 206 687 204 661 q 214 725 208 713 q 278 796 235 776 q 365 807 321 815 q 441 765 408 799 q 474 676 474 732 l 474 492 m 447 349 q 449 431 450 390 q 447 513 447 472 l 447 676 q 432 733 447 710 q 394 769 417 757 q 343 783 371 782 q 292 773 315 783 q 251 740 268 763 q 231 683 233 718 q 229 602 228 643 q 231 521 231 561 l 231 357 q 263 278 231 306 q 335 250 296 251 q 409 273 375 249 q 447 349 443 297 m 299 0 q 160 38 224 0 q 61 142 97 75 q 38 205 46 172 q 31 282 31 238 l 31 571 q 38 642 31 611 q 57 701 44 672 l 61 711 l 63 713 l 61 713 l 75 742 l 76 746 q 97 801 85 774 q 199 908 135 868 q 339 947 263 947 q 478 908 414 947 q 579 801 543 868 q 602 737 594 769 q 610 660 610 704 l 610 371 q 602 293 610 326 q 579 231 594 260 l 565 207 l 546 165 l 546 167 l 544 165 l 546 165 l 535 142 q 437 38 500 75 q 299 0 374 0 m 96 371 q 124 243 96 294 q 213 147 156 182 q 339 113 269 113 q 465 147 407 113 q 554 243 522 182 q 575 301 568 271 q 582 371 582 331 l 582 660 q 575 731 582 700 q 554 790 568 763 q 465 885 522 850 q 339 919 407 919 q 213 885 269 919 q 124 790 156 850 q 102 731 108 763 q 96 660 96 700 l 96 371 m 339 278 q 284 301 307 278 q 261 356 261 324 l 261 661 q 265 698 261 679 q 288 735 268 717 q 339 753 307 753 q 393 731 371 753 q 415 676 415 708 l 415 371 q 412 335 415 354 q 389 297 408 315 q 365 283 378 289 q 339 278 353 278 m 292 690 l 300 708 l 299 707 l 292 692 l 292 690 m 289 356 q 304 321 289 336 q 339 306 319 306 q 351 307 346 306 l 351 588 q 335 624 351 608 q 299 640 319 640 q 294 640 296 640 q 289 639 292 639 l 289 356 z "},"1":{"ha":438,"x_min":35,"x_max":399,"o":"m 342 897 l 342 139 l 233 139 l 233 789 l 125 789 l 125 897 l 342 897 l 342 897 m 315 167 l 315 871 l 153 871 l 153 817 l 261 817 l 261 167 l 315 167 l 315 167 m 71 936 l 71 947 l 399 947 l 399 85 l 393 85 l 354 0 l 140 0 l 140 640 l 35 640 l 35 854 l 71 936 m 99 919 l 99 753 l 204 753 l 204 113 l 371 113 l 371 919 l 99 919 z "},"2":{"ha":642,"x_min":29,"x_max":608,"o":"m 149 367 l 149 172 l 528 172 l 528 225 l 358 225 l 338 225 l 203 225 q 201 296 203 261 q 203 367 200 331 q 226 433 206 403 q 282 479 247 464 q 315 488 299 486 q 351 492 332 490 q 421 510 389 493 q 479 552 457 528 q 515 613 501 576 q 526 683 528 647 q 511 752 525 719 q 472 810 497 785 q 411 850 446 835 q 340 864 376 864 q 271 851 304 864 q 210 815 238 839 q 167 757 183 790 l 231 757 q 291 804 257 793 q 358 809 325 815 q 419 782 392 803 q 462 731 447 761 q 474 666 476 701 q 444 596 472 631 q 404 560 425 572 q 354 546 383 549 q 301 540 326 543 q 250 524 275 536 q 178 458 206 500 q 149 367 151 415 m 554 251 l 554 144 l 122 144 l 122 368 q 145 453 125 413 q 201 524 165 494 q 290 565 242 556 q 340 572 315 572 q 389 583 365 571 q 427 617 413 596 q 445 661 442 638 q 442 708 449 685 q 417 751 435 732 q 374 778 397 771 q 326 783 350 786 q 280 767 301 781 q 244 731 258 753 l 129 731 q 162 801 139 769 q 216 853 185 832 q 285 884 247 875 q 364 889 324 893 q 439 867 404 885 q 499 820 474 849 q 539 756 524 792 q 554 681 554 721 q 541 605 554 640 q 503 540 528 569 q 445 492 479 511 q 371 467 411 472 q 334 464 351 464 q 299 457 317 464 q 240 403 257 442 q 233 371 235 392 q 230 327 231 350 q 230 283 229 304 q 231 251 231 263 l 338 251 l 358 251 l 554 251 m 336 322 q 325 321 331 321 q 313 321 319 321 q 300 321 306 321 q 288 318 294 321 l 288 313 l 288 307 l 608 307 l 608 86 l 601 86 l 564 0 l 31 0 l 31 278 q 37 328 31 303 q 54 376 43 353 l 75 424 q 93 472 82 447 q 121 518 104 496 q 155 556 136 539 q 193 586 174 572 l 29 586 q 39 651 32 622 q 57 704 46 681 l 81 754 q 113 829 93 800 q 151 875 132 858 q 240 928 192 910 q 340 947 289 947 q 474 913 414 947 q 572 814 533 879 q 600 747 592 782 q 608 676 608 713 q 597 599 608 636 q 563 526 585 561 l 540 475 q 517 435 531 454 q 489 399 504 417 q 417 347 454 365 q 336 322 381 329 m 261 313 q 262 362 260 338 q 275 401 264 386 q 315 430 294 425 q 353 435 336 435 q 362 435 357 435 q 371 436 367 435 q 447 458 414 442 q 511 506 481 474 q 557 571 540 535 q 578 646 574 607 q 576 724 583 685 q 547 799 568 763 q 460 888 514 857 q 340 919 406 919 q 249 903 293 919 q 171 856 206 886 q 124 794 147 832 q 96 699 100 757 l 264 699 q 293 740 272 726 q 338 753 314 753 q 396 728 371 753 q 414 672 417 706 q 390 620 411 640 q 333 600 368 600 q 258 586 293 597 q 142 501 186 561 q 108 437 119 471 q 94 367 97 403 l 94 346 l 94 114 l 581 114 l 581 279 l 261 279 l 261 304 l 261 313 m 297 639 q 254 617 271 639 l 253 614 q 332 628 290 626 q 297 639 317 639 m 283 682 l 288 689 q 283 682 283 685 q 282 679 282 681 l 283 682 z "},"3":{"ha":642,"x_min":29,"x_max":610,"o":"m 556 699 q 540 601 561 642 q 489 518 519 560 q 540 435 519 476 q 556 339 561 394 q 523 247 550 289 q 451 178 496 204 q 354 148 406 150 q 258 164 303 146 q 178 219 213 182 q 131 307 144 256 l 246 307 q 301 260 267 272 q 367 257 335 249 q 423 291 399 265 q 447 357 447 317 q 428 422 449 393 q 371 461 407 450 q 344 464 364 463 q 301 465 324 465 q 260 465 279 465 q 232 465 240 465 l 232 571 l 336 571 q 393 584 368 569 q 433 622 418 599 q 449 674 447 646 q 435 729 450 703 q 394 769 419 756 q 341 783 368 783 q 288 770 314 783 q 246 731 263 757 l 131 731 q 178 819 144 782 q 258 874 213 856 q 354 889 303 892 q 451 858 406 886 q 523 790 496 832 q 556 699 550 749 m 529 668 q 514 751 532 711 q 463 818 496 790 q 384 857 426 847 q 301 858 342 867 q 224 824 260 850 q 169 757 189 799 l 232 757 q 287 799 254 786 q 353 809 319 813 q 415 787 386 806 q 461 735 444 768 q 474 667 478 701 q 453 606 471 633 q 404 560 435 578 q 336 544 374 543 l 258 544 l 258 492 l 338 492 q 406 476 375 493 q 453 431 436 458 q 474 369 471 403 q 461 301 478 335 q 415 249 444 268 q 353 228 386 231 q 287 238 319 225 q 232 281 254 251 l 169 281 q 224 213 189 239 q 301 179 260 188 q 384 180 342 171 q 463 218 426 189 q 514 285 496 246 q 529 368 532 325 q 504 450 526 417 q 454 518 482 483 q 504 586 482 553 q 529 668 526 619 m 610 678 q 567 533 610 599 l 558 514 q 610 358 610 439 q 597 276 610 315 q 568 219 586 246 l 544 167 q 478 74 521 114 q 383 15 436 35 q 297 0 338 0 q 198 20 247 0 q 111 79 149 40 l 111 78 q 29 269 38 147 l 67 353 q 65 363 65 356 l 138 363 l 138 535 l 161 588 l 29 588 q 56 689 36 643 q 58 694 56 692 l 61 701 l 61 700 l 81 747 q 120 828 94 792 q 180 892 146 865 q 253 935 214 919 q 338 950 293 950 q 425 936 383 950 q 531 867 483 915 q 597 760 578 819 q 610 678 610 718 m 524 518 l 533 532 q 578 637 569 581 q 571 750 588 693 q 513 849 553 808 q 415 910 472 890 q 338 922 375 922 q 248 905 290 922 q 174 858 206 888 q 121 788 142 828 q 96 701 100 747 l 265 701 q 292 740 272 725 q 339 756 313 756 q 393 732 369 756 q 408 649 428 694 q 381 613 400 626 q 339 600 363 600 l 336 600 l 201 600 l 201 435 l 281 435 l 293 435 l 314 435 q 357 431 333 435 q 397 408 381 428 q 413 376 410 393 q 414 339 417 358 q 365 286 401 300 q 339 282 353 282 q 292 297 313 282 q 265 335 272 311 l 96 335 q 168 185 104 246 q 247 132 201 150 q 338 114 292 114 q 376 117 357 114 q 415 128 396 121 q 513 187 472 146 q 571 285 553 228 q 578 399 588 343 q 533 503 569 456 l 524 518 m 313 319 q 332 311 318 314 q 322 315 326 314 q 313 319 318 317 m 332 628 q 299 642 318 642 q 265 628 281 642 l 332 628 m 382 650 l 368 619 l 385 654 l 383 653 l 382 651 l 379 646 l 382 650 z "},"4":{"ha":642,"x_min":26,"x_max":604,"o":"m 550 886 l 550 146 l 443 146 l 443 410 q 354 408 399 410 q 264 421 310 406 q 188 467 221 436 q 136 538 154 497 q 117 624 117 582 q 118 711 118 667 l 118 886 l 226 886 q 225 753 226 819 q 226 618 224 686 q 249 556 228 583 q 306 519 271 529 q 333 517 313 518 q 374 516 353 517 q 416 515 396 515 q 443 515 436 515 l 443 886 l 550 886 m 524 172 l 524 860 l 469 860 l 469 489 q 396 488 433 489 q 322 490 358 488 q 254 515 285 493 q 210 572 224 538 q 202 603 204 585 q 199 643 200 622 q 199 683 199 664 q 199 715 199 703 l 199 860 l 146 860 l 146 694 q 146 613 146 653 q 168 533 146 574 q 224 472 189 496 q 301 439 258 447 q 334 437 310 438 q 385 436 358 436 q 437 436 413 436 q 469 436 461 436 l 469 172 l 524 172 m 383 947 l 604 947 l 604 85 l 599 85 l 561 0 l 346 0 l 346 265 q 249 271 297 265 q 156 304 201 276 q 83 369 111 332 q 38 458 54 406 q 28 532 29 486 q 26 615 26 578 l 26 854 l 63 936 l 63 947 l 285 947 l 285 669 q 286 620 285 633 q 290 601 288 607 q 317 576 299 581 q 346 571 335 571 l 346 854 l 383 936 l 383 947 m 386 544 l 372 544 q 362 544 367 544 q 350 543 357 543 q 332 544 343 543 q 308 549 321 544 q 284 563 296 553 q 265 590 272 572 q 258 622 261 599 q 257 706 256 644 l 257 714 l 257 919 l 90 919 l 90 744 l 90 719 q 90 677 90 700 q 91 631 90 654 q 94 588 92 608 q 101 554 97 568 q 140 473 115 506 q 208 414 165 440 q 296 383 251 388 q 386 379 340 379 l 411 379 l 411 113 l 576 113 l 576 919 l 411 919 l 411 544 l 386 544 z "},"5":{"ha":642,"x_min":36,"x_max":615,"o":"m 560 886 l 560 781 l 235 781 l 235 569 q 302 571 269 569 q 367 568 335 572 q 429 552 399 564 q 489 514 460 540 q 555 402 540 468 q 542 274 569 336 q 451 173 511 204 q 326 147 390 142 q 208 191 263 151 q 133 304 153 231 l 250 304 q 292 261 267 274 q 344 250 318 249 q 395 265 371 251 q 435 299 419 278 q 453 347 450 319 q 439 406 456 375 q 410 442 426 431 q 376 458 394 454 q 338 463 358 463 q 294 463 317 463 l 128 463 l 128 886 l 560 886 m 532 807 l 532 860 l 154 860 l 154 489 l 339 489 q 426 463 388 489 q 475 389 464 436 q 465 296 488 336 q 401 238 442 256 q 315 227 361 219 q 235 278 268 235 l 172 278 q 256 192 201 218 q 366 174 310 167 q 469 217 422 181 q 529 319 515 254 q 517 432 542 378 q 439 517 492 486 q 384 538 411 532 q 326 543 357 543 l 208 543 l 208 807 l 532 807 m 72 942 l 615 942 l 615 722 l 608 722 l 571 636 l 296 636 l 296 624 l 300 624 q 380 619 343 624 q 451 600 417 614 q 576 492 532 564 q 614 353 614 425 q 601 272 614 313 q 565 197 588 232 l 563 190 l 549 160 l 550 161 l 544 150 q 511 93 533 122 q 418 21 471 47 q 307 -6 365 -6 q 206 14 256 -6 q 119 68 157 33 q 64 151 86 100 q 36 264 42 201 l 58 315 l 36 315 l 36 849 l 72 931 l 72 942 m 578 224 q 579 226 579 225 l 578 224 m 100 428 l 336 428 q 384 416 363 428 q 417 382 406 404 q 403 303 433 340 q 344 275 379 275 q 299 289 321 275 q 269 329 278 303 l 103 329 q 124 244 106 283 q 176 175 143 204 q 255 126 211 143 q 347 108 299 108 q 448 131 400 108 q 532 197 496 154 q 585 334 579 257 q 553 478 592 411 q 506 535 532 513 q 442 575 479 558 q 376 592 410 589 q 300 596 342 596 l 267 596 l 267 750 l 588 750 l 588 914 l 100 914 l 100 428 m 319 313 q 336 304 328 304 q 328 308 333 307 q 319 313 324 310 z "},"6":{"ha":1157,"x_min":28,"x_max":608,"o":"m 550 732 l 432 732 q 399 767 419 754 q 353 784 378 781 q 306 781 329 788 q 263 756 282 774 q 235 715 242 736 q 228 668 228 694 l 228 572 q 293 574 261 572 q 356 572 325 575 q 418 558 388 568 q 479 522 449 547 q 549 416 531 479 q 544 290 567 353 q 465 185 521 221 q 347 147 410 149 q 226 176 285 144 q 138 274 168 207 q 122 336 124 306 q 119 399 119 367 l 119 526 l 119 654 q 124 718 119 688 q 144 779 128 749 q 203 848 168 822 q 280 884 239 874 q 364 890 321 894 q 444 865 407 885 q 509 813 481 846 q 550 732 538 779 m 526 326 q 511 438 538 385 q 432 521 485 492 q 377 541 404 536 q 318 546 350 546 l 201 546 l 201 663 q 208 719 201 693 q 238 769 214 746 q 288 803 260 792 q 344 812 315 814 q 401 797 374 810 q 447 758 428 783 l 511 758 q 428 844 482 818 q 319 864 375 869 q 215 822 263 858 q 151 722 168 786 q 147 678 149 711 q 146 608 146 646 q 146 538 146 571 q 146 493 146 504 l 146 379 q 151 323 146 350 q 171 268 156 296 q 259 189 204 211 q 369 176 314 167 q 469 223 425 185 q 526 326 514 261 m 424 463 q 460 418 447 443 q 474 366 472 393 q 465 313 475 339 q 435 265 456 286 q 385 235 413 244 q 331 226 358 225 q 276 240 303 228 q 232 275 250 251 q 206 326 211 300 q 201 381 201 351 l 201 492 l 315 492 q 372 487 346 492 q 424 463 399 482 m 415 283 q 440 322 432 300 q 447 365 449 343 q 435 407 446 388 q 407 442 425 426 q 365 461 386 457 q 321 465 344 465 l 228 465 l 228 376 q 232 332 228 353 q 253 292 236 311 q 332 253 283 256 q 415 283 381 250 m 383 418 q 413 361 410 397 q 390 303 415 325 q 365 286 379 292 q 336 281 351 281 q 303 288 319 281 q 275 310 286 294 q 260 353 261 326 q 260 400 258 381 l 260 410 l 260 433 l 283 433 l 293 433 q 311 435 299 435 q 349 432 329 435 q 383 418 369 429 m 306 318 q 329 308 317 310 l 328 310 q 318 315 324 313 q 306 318 313 317 m 524 131 q 428 35 488 71 q 297 0 368 0 q 216 13 256 0 q 142 50 176 26 l 140 50 q 78 113 104 76 q 40 193 51 149 q 29 256 31 225 q 29 318 28 286 l 29 517 q 32 615 29 568 q 54 703 35 661 l 76 753 q 102 815 85 785 q 151 876 119 846 q 335 949 232 949 q 435 929 386 949 q 522 874 485 910 q 580 788 557 840 q 608 674 603 736 l 603 674 l 564 588 l 482 588 q 557 514 519 564 q 607 358 607 443 q 568 217 607 283 l 558 201 l 544 169 l 544 171 l 539 160 q 524 131 533 146 m 60 714 q 57 708 57 711 l 60 714 m 194 160 q 262 126 225 138 q 338 114 299 114 q 457 144 403 114 q 544 232 511 175 q 579 366 582 294 q 535 499 576 438 q 482 554 510 533 q 423 585 454 575 q 357 597 392 594 q 283 600 322 600 l 260 600 l 260 624 l 260 639 q 262 694 257 663 q 300 744 267 725 q 336 754 315 754 q 381 739 361 754 q 410 701 401 724 l 578 701 q 555 784 574 746 q 504 854 536 822 q 426 903 469 886 q 335 921 382 921 q 171 856 243 921 q 126 801 142 829 q 103 741 110 772 q 94 676 96 710 q 93 607 93 643 l 93 589 l 93 433 l 93 406 q 93 346 92 375 q 103 289 94 317 q 194 160 126 207 m 288 628 q 307 628 297 628 q 328 626 317 628 q 296 640 313 640 q 288 638 293 640 l 288 628 m 313 717 l 286 658 l 286 657 l 313 717 z "},"7":{"ha":642,"x_min":29,"x_max":607,"o":"m 551 894 l 551 740 l 394 143 l 282 143 l 451 786 l 118 786 l 118 894 l 551 894 l 551 894 m 524 743 l 524 867 l 146 867 l 146 814 l 486 814 l 318 169 l 374 169 l 524 743 l 524 743 m 65 938 l 65 949 l 607 949 l 607 731 l 439 86 l 433 86 l 396 0 l 175 0 l 343 640 l 29 640 l 29 856 l 65 938 m 93 921 l 93 754 l 414 754 l 246 114 l 418 114 l 581 733 l 581 921 l 93 921 z "},"8":{"ha":642,"x_min":31,"x_max":611,"o":"m 542 758 q 556 697 554 726 q 550 633 558 667 q 526 574 543 600 q 489 522 508 547 q 526 469 508 496 q 550 411 543 443 q 542 285 565 347 q 463 185 518 222 q 340 149 407 149 q 217 185 272 149 q 139 285 163 222 q 129 411 115 346 q 155 469 138 443 q 192 522 172 496 q 155 574 172 547 q 129 633 138 600 q 139 758 115 697 q 218 858 163 821 q 340 894 274 894 q 463 858 407 894 q 542 758 518 821 m 521 307 q 530 370 532 342 q 517 424 528 399 q 490 473 507 449 q 454 522 474 497 q 490 571 474 547 q 517 619 507 594 q 530 673 528 644 q 521 738 532 701 q 452 832 501 796 q 340 868 403 868 q 228 832 278 868 q 160 738 179 796 q 150 673 149 701 q 162 619 151 644 q 189 571 172 594 q 225 522 206 547 q 189 473 206 497 q 162 424 172 449 q 150 370 151 399 q 160 307 149 342 q 228 212 179 249 q 340 175 278 175 q 452 212 403 175 q 521 307 501 249 m 340 814 q 436 776 397 814 q 475 682 475 738 q 436 588 475 626 q 340 549 397 549 q 288 559 313 549 q 244 588 263 569 q 215 630 225 606 q 204 682 204 654 q 215 734 204 710 q 244 776 225 758 q 288 803 263 793 q 340 814 313 814 m 449 682 q 417 757 449 726 q 340 788 385 788 q 264 757 296 788 q 232 682 232 726 q 264 606 232 638 q 340 575 296 575 q 417 606 385 575 q 449 682 449 638 m 340 494 q 393 484 368 494 q 436 456 418 474 q 465 413 454 438 q 475 363 475 389 q 436 268 475 307 q 340 229 397 229 q 288 240 313 229 q 244 268 263 250 q 215 310 225 286 q 204 363 204 335 q 215 413 204 389 q 244 456 225 438 q 288 484 263 474 q 340 494 313 494 m 449 363 q 417 438 449 407 q 340 468 385 468 q 264 438 296 468 q 232 363 232 407 q 264 287 232 318 q 340 256 296 256 q 417 287 385 256 q 449 363 449 318 m 567 531 l 560 514 q 597 439 583 478 q 611 360 611 400 q 582 236 611 294 q 572 219 576 228 q 563 203 568 211 l 546 165 l 547 167 l 542 156 l 538 149 q 440 39 503 78 q 299 0 378 0 q 160 41 224 0 q 60 149 96 82 q 38 209 46 179 q 31 269 31 239 q 54 376 31 322 l 76 428 q 79 436 76 431 q 42 509 54 471 q 31 586 31 547 q 57 697 31 640 l 60 706 l 76 743 q 85 770 81 757 q 97 797 90 783 q 198 907 133 865 q 339 949 263 949 q 482 908 418 949 q 582 797 546 868 q 611 676 611 739 q 568 533 611 599 l 567 531 m 522 517 l 535 532 q 583 656 576 589 q 557 786 589 724 q 467 885 525 849 q 339 921 410 921 q 211 885 268 921 q 122 786 154 849 q 96 656 90 724 q 144 532 101 589 l 154 517 l 144 503 q 96 379 101 446 q 122 249 90 313 q 211 149 154 185 q 339 114 268 114 q 467 149 410 114 q 557 249 525 185 q 583 379 589 313 q 535 503 576 446 l 522 517 m 339 433 q 393 411 371 433 q 415 357 415 389 q 393 303 415 325 q 339 281 371 281 q 285 303 307 281 q 263 357 263 325 q 285 411 263 389 q 339 433 307 433 m 306 321 q 332 310 319 310 q 306 321 321 319 m 339 754 q 393 732 371 754 q 415 678 415 710 q 393 623 415 646 q 339 600 371 600 q 285 623 307 600 q 263 678 263 646 q 285 732 263 710 q 339 754 307 754 m 306 640 q 332 629 319 631 q 306 640 324 638 z "},"9":{"ha":642,"x_min":32,"x_max":611,"o":"m 151 367 l 151 172 l 531 172 l 531 225 l 361 225 l 340 225 l 206 225 q 204 296 206 261 q 206 367 203 331 q 229 433 208 403 q 285 479 250 464 q 318 488 301 486 q 354 492 335 490 q 424 510 392 493 q 482 552 460 528 q 518 613 504 576 q 529 683 531 647 q 514 752 528 719 q 474 810 500 785 q 414 850 449 835 q 343 864 379 864 q 274 851 307 864 q 213 815 240 839 q 169 757 186 790 l 233 757 q 294 804 260 793 q 361 809 328 815 q 422 782 394 803 q 465 731 450 761 q 477 666 479 701 q 447 596 475 631 q 407 560 428 572 q 357 546 386 549 q 303 540 329 543 q 253 524 278 536 q 181 458 208 500 q 151 367 154 415 m 557 251 l 557 144 l 125 144 l 125 368 q 148 453 128 413 q 204 524 168 494 q 293 565 244 556 q 343 572 318 572 q 392 583 368 571 q 430 617 415 596 q 448 661 444 638 q 444 708 451 685 q 419 751 438 732 q 376 778 400 771 q 328 783 353 786 q 283 767 304 781 q 247 731 261 753 l 132 731 q 165 801 142 769 q 219 853 188 832 q 288 884 250 875 q 367 889 326 893 q 442 867 407 885 q 501 820 476 849 q 542 756 526 792 q 557 681 557 721 q 544 605 557 640 q 506 540 531 569 q 448 492 482 511 q 374 467 414 472 q 337 464 354 464 q 301 457 319 464 q 243 403 260 442 q 235 371 238 392 q 233 327 233 350 q 233 283 232 304 q 233 251 233 263 l 340 251 l 361 251 l 557 251 m 339 322 q 328 321 333 321 q 315 321 322 321 q 303 321 308 321 q 290 318 297 321 l 290 313 l 290 307 l 611 307 l 611 86 l 604 86 l 567 0 l 33 0 l 33 278 q 40 328 33 303 q 57 376 46 353 l 78 424 q 96 472 85 447 q 124 518 107 496 q 158 556 139 539 q 196 586 176 572 l 32 586 q 42 651 35 622 q 60 704 49 681 l 83 754 q 115 829 96 800 q 154 875 135 858 q 243 928 194 910 q 343 947 292 947 q 476 913 417 947 q 575 814 536 879 q 603 747 594 782 q 611 676 611 713 q 599 599 611 636 q 565 526 588 561 l 543 475 q 520 435 533 454 q 492 399 507 417 q 420 347 457 365 q 339 322 383 329 m 264 313 q 265 362 263 338 q 278 401 267 386 q 318 430 297 425 q 356 435 339 435 q 365 435 360 435 q 374 436 369 435 q 450 458 417 442 q 514 506 483 474 q 560 571 543 535 q 581 646 576 607 q 578 724 586 685 q 550 799 571 763 q 463 888 517 857 q 343 919 408 919 q 252 903 296 919 q 174 856 208 886 q 126 794 150 832 q 99 699 103 757 l 267 699 q 296 740 275 726 q 340 753 317 753 q 399 728 374 753 q 417 672 419 706 q 392 620 414 640 q 336 600 371 600 q 261 586 296 597 q 144 501 189 561 q 111 437 122 471 q 97 367 100 403 l 97 346 l 97 114 l 583 114 l 583 279 l 264 279 l 264 304 l 264 313 m 300 639 q 257 617 274 639 l 256 614 q 335 628 293 626 q 300 639 319 639 m 286 682 l 290 689 q 286 682 286 685 q 285 679 285 681 l 286 682 z "},"\u0000":{"ha":0,"x_min":0,"x_max":0,"o":""},"\r":{"ha":374,"x_min":0,"x_max":0,"o":""}," ":{"ha":374,"x_min":0,"x_max":0,"o":""},"D":{"ha":642,"x_min":31,"x_max":608,"o":"m 556 681 l 556 357 q 538 273 556 313 q 492 204 521 233 q 423 158 463 175 q 339 140 383 140 l 285 140 l 124 140 l 124 897 l 232 897 l 285 897 l 339 897 q 423 880 383 897 q 492 833 463 863 q 538 765 521 804 q 556 681 556 725 m 528 357 l 528 681 q 513 754 528 719 q 473 815 499 789 q 413 855 447 840 q 339 869 378 869 l 285 869 l 232 869 l 150 869 l 150 167 l 285 167 l 313 167 l 339 167 q 413 181 378 167 q 473 222 447 196 q 513 283 499 249 q 528 357 528 317 m 475 681 l 475 357 q 435 260 475 300 q 339 221 396 221 l 204 221 l 204 411 l 204 735 l 204 815 l 339 815 q 435 776 396 815 q 475 681 475 738 m 447 357 l 447 681 q 415 757 447 725 q 339 789 383 789 l 232 789 l 232 735 l 232 411 l 232 249 l 339 249 q 415 281 383 249 q 447 357 447 313 m 540 156 q 444 43 508 86 q 297 0 379 0 l 31 0 l 31 854 l 67 935 l 67 947 l 338 947 q 444 926 394 947 q 530 869 493 906 q 588 783 567 832 q 608 676 608 733 l 608 357 q 560 200 608 268 l 546 168 q 543 163 544 165 q 540 156 542 160 m 338 113 q 432 132 388 113 q 510 185 476 151 q 562 263 543 218 q 581 357 581 307 l 581 676 q 562 771 581 726 q 510 849 543 815 q 432 901 476 882 q 338 919 388 919 l 94 919 l 94 113 l 338 113 m 415 354 q 399 308 414 328 q 360 282 383 289 q 324 278 340 278 l 304 278 q 294 279 297 279 q 285 279 290 279 l 261 279 l 261 750 q 302 752 274 751 q 363 740 331 753 q 392 720 381 733 q 408 692 403 707 q 414 661 413 676 q 415 636 415 646 l 415 625 l 415 490 l 415 444 l 415 354 m 356 442 q 355 541 356 493 q 351 607 354 589 q 339 631 349 624 q 318 640 329 638 q 289 642 304 643 l 289 307 q 299 307 293 307 q 308 306 306 307 l 324 306 q 338 306 331 306 q 351 308 344 307 l 356 310 l 356 442 z "},"I":{"ha":342,"x_min":43,"x_max":301,"o":"m 244 893 l 244 151 l 136 151 l 136 893 l 244 893 l 244 893 m 218 178 l 218 867 l 164 867 l 164 178 l 218 178 l 218 178 m 294 86 l 257 0 l 43 0 l 43 856 l 79 936 l 79 949 l 301 949 l 301 86 l 294 86 m 107 921 l 107 114 l 274 114 l 274 921 l 107 921 z "},"H":{"ha":642,"x_min":32,"x_max":610,"o":"m 557 897 l 557 140 l 449 140 l 449 465 l 232 465 l 232 140 l 124 140 l 124 897 l 232 897 l 232 574 l 449 574 l 449 897 l 557 897 l 557 897 m 529 168 l 529 871 l 475 871 l 475 546 l 206 546 l 206 871 l 151 871 l 151 168 l 206 168 l 206 492 l 475 492 l 475 168 l 529 168 l 529 168 m 283 86 l 246 0 l 32 0 l 32 854 l 68 935 l 68 947 l 290 947 l 290 628 l 351 628 l 351 854 l 389 935 l 389 947 l 610 947 l 610 86 l 604 86 l 567 0 l 351 0 l 351 321 l 290 321 l 290 86 l 283 86 m 96 919 l 96 114 l 263 114 l 263 433 l 417 433 l 417 114 l 582 114 l 582 919 l 417 919 l 417 600 l 263 600 l 263 919 l 96 919 z "},"F":{"ha":642,"x_min":33,"x_max":611,"o":"m 557 571 l 557 463 l 232 463 l 232 138 l 124 138 l 124 894 l 232 894 l 286 894 l 557 894 l 557 786 l 232 786 l 232 571 l 557 571 l 557 571 m 529 489 l 529 543 l 206 543 l 206 814 l 529 814 l 529 868 l 151 868 l 151 165 l 206 165 l 206 489 l 529 489 l 529 489 m 285 85 l 247 0 l 33 0 l 33 854 l 69 935 l 69 947 l 611 947 l 611 725 l 606 725 l 567 640 l 292 640 l 292 628 l 611 628 l 611 406 l 606 406 l 567 319 l 292 319 l 292 85 l 285 85 m 97 919 l 97 113 l 264 113 l 264 433 l 583 433 l 583 600 l 264 600 l 264 753 l 583 753 l 583 919 l 97 919 z "},"R":{"ha":642,"x_min":35,"x_max":613,"o":"m 556 333 l 556 136 l 449 136 l 449 260 q 449 284 449 267 q 449 321 449 301 q 447 358 449 340 q 444 382 446 375 q 413 433 436 413 q 357 458 389 454 q 297 461 326 463 q 236 460 267 460 l 236 136 l 129 136 l 129 892 l 311 892 q 399 883 358 892 q 479 840 440 875 q 535 768 515 810 q 556 681 554 726 q 537 590 557 628 q 489 514 517 553 q 519 469 507 489 q 540 431 532 450 q 552 388 549 411 q 556 333 556 365 m 529 163 l 529 349 q 523 397 529 375 q 506 439 517 419 q 483 476 496 458 q 456 514 469 494 q 503 581 481 547 q 528 660 525 614 q 517 742 532 703 q 472 811 503 782 q 401 855 438 844 q 321 865 365 865 l 156 865 l 156 163 l 210 163 l 210 486 l 342 486 q 404 471 375 486 q 453 426 433 456 q 474 363 474 394 q 475 297 475 331 l 475 163 l 529 163 m 475 675 q 449 594 475 631 q 379 546 422 558 q 347 542 371 543 q 294 540 322 540 q 242 540 267 540 q 210 540 218 540 l 210 811 q 242 811 218 811 q 294 811 267 811 q 347 810 322 811 q 379 806 371 808 q 449 757 422 793 q 475 675 475 721 m 372 572 q 428 611 407 583 q 449 675 449 639 q 428 740 449 711 q 372 779 407 768 q 346 782 365 781 q 304 783 326 783 q 263 783 282 783 q 236 783 243 783 l 236 568 q 263 568 243 568 q 304 568 282 568 q 346 569 326 568 q 372 572 365 569 m 363 751 q 403 723 388 743 q 419 676 419 703 q 403 631 419 651 q 363 603 388 610 q 329 599 347 599 q 308 600 314 599 l 289 600 l 267 600 l 267 753 l 289 753 q 297 753 293 753 q 308 754 301 753 l 329 754 q 347 753 339 754 q 363 751 356 753 m 336 626 q 326 633 332 629 q 315 639 321 636 q 294 642 301 642 l 294 628 l 314 628 q 329 626 321 626 l 336 626 m 356 0 l 356 213 q 354 265 356 240 q 343 300 353 289 q 319 315 333 311 q 294 321 306 319 l 294 86 l 288 86 l 250 0 l 35 0 l 35 854 l 71 935 l 71 947 l 299 947 q 371 944 336 947 q 437 930 406 940 q 497 899 468 919 q 554 844 526 879 q 598 764 583 808 q 613 676 613 719 q 601 598 613 636 q 567 525 590 560 l 561 514 q 605 415 597 464 q 613 308 613 365 l 613 86 l 607 86 l 568 0 l 356 0 m 321 435 q 363 429 340 435 q 403 404 386 424 q 417 361 415 389 q 419 303 419 333 l 419 292 l 419 114 l 585 114 l 585 308 q 578 410 585 364 q 538 503 571 457 l 526 517 l 538 531 q 585 678 586 597 q 533 826 585 760 q 481 878 508 860 q 425 906 454 896 q 365 917 396 915 q 299 919 333 919 l 268 919 l 236 919 l 99 919 l 99 114 l 267 114 l 267 433 l 289 433 q 301 435 296 433 l 321 435 z "},"B":{"ha":642,"x_min":36,"x_max":614,"o":"m 239 144 l 133 144 l 133 892 l 239 892 q 317 893 279 892 q 390 888 354 894 q 457 861 425 881 q 518 801 489 842 q 552 732 543 767 q 557 656 561 697 q 533 581 551 613 q 492 518 515 550 q 533 454 515 486 q 557 381 551 422 q 552 303 561 338 q 518 233 543 268 q 457 174 489 193 q 390 148 425 154 q 317 143 354 142 q 239 144 279 144 m 528 643 q 528 715 535 683 q 500 782 522 747 q 451 834 478 815 q 383 861 424 853 q 311 866 347 868 q 239 864 275 864 l 160 864 l 160 171 l 239 171 q 311 169 275 171 q 383 175 347 168 q 451 201 424 183 q 500 254 478 219 q 528 320 522 288 q 528 393 535 353 q 501 460 521 432 q 458 518 481 489 q 501 576 481 547 q 528 643 521 604 m 383 806 q 451 758 425 793 q 478 678 478 722 q 451 598 478 633 q 383 550 425 563 q 349 546 374 547 q 298 544 325 544 q 247 544 271 544 q 213 544 222 544 l 213 811 q 247 811 222 811 q 298 811 271 811 q 349 810 325 811 q 383 806 374 808 m 375 575 q 431 614 410 586 q 451 678 451 642 q 431 742 451 714 q 375 781 410 769 q 349 783 368 782 q 307 785 329 785 q 265 785 285 785 q 239 785 246 785 l 239 571 q 265 571 246 571 q 307 571 285 571 q 349 572 329 571 q 375 575 368 572 m 383 486 q 451 438 425 474 q 478 357 478 401 q 451 277 478 313 q 383 229 425 242 q 349 225 374 226 q 298 224 325 224 q 247 224 271 224 q 213 224 222 224 l 213 492 q 247 492 222 492 q 298 492 271 492 q 349 490 325 492 q 383 486 374 489 m 375 256 q 431 293 410 265 q 451 357 451 321 q 431 422 451 393 q 375 460 410 450 q 349 463 368 461 q 307 464 329 464 q 265 464 285 464 q 239 464 246 464 l 239 251 q 265 251 246 251 q 307 251 285 251 q 349 252 329 251 q 375 256 368 253 m 542 149 q 442 41 506 82 q 303 0 378 0 l 36 0 l 36 854 l 72 935 l 72 947 l 343 947 q 484 907 419 947 q 585 797 549 867 q 614 675 614 739 q 568 526 614 599 l 561 514 q 614 358 614 440 q 585 238 614 296 q 577 222 582 229 q 568 208 572 215 l 542 149 m 100 114 l 343 114 q 471 149 414 114 q 560 249 528 185 q 586 379 592 313 q 538 503 581 446 l 528 517 l 538 531 q 586 655 581 588 q 560 786 592 722 q 471 885 528 850 q 343 919 414 919 l 100 919 l 100 114 m 422 676 q 400 622 422 644 q 346 600 378 600 l 269 600 l 269 754 l 346 754 q 400 731 378 754 q 422 676 422 708 m 340 628 q 324 637 333 633 q 306 640 315 640 l 297 640 l 297 628 l 340 628 m 422 357 q 400 302 422 325 q 346 279 378 279 l 269 279 l 269 433 l 346 433 q 400 411 378 433 q 422 357 422 389 m 340 307 q 306 319 325 319 l 297 319 l 297 307 l 340 307 z "},"E":{"ha":642,"x_min":31,"x_max":610,"o":"m 557 253 l 557 146 l 286 146 l 232 146 l 124 146 l 126 890 l 232 890 l 286 890 l 557 890 l 557 785 l 229 785 l 229 571 l 557 571 l 557 464 l 229 464 l 229 253 l 557 253 l 557 253 m 529 172 l 529 225 l 203 225 l 203 490 l 529 490 l 529 543 l 203 543 l 203 811 l 529 811 l 529 864 l 286 864 l 232 864 l 153 864 l 153 172 l 232 172 l 286 172 l 529 172 l 529 172 m 603 85 l 565 0 l 31 0 l 31 854 l 68 935 l 68 947 l 610 947 l 610 725 l 603 725 l 565 639 l 289 639 l 289 626 l 610 626 l 610 406 l 603 406 l 565 319 l 289 319 l 289 307 l 610 307 l 610 85 l 603 85 m 94 919 l 94 113 l 582 113 l 582 279 l 261 279 l 261 433 l 582 433 l 582 599 l 261 599 l 261 753 l 582 753 l 582 919 l 94 919 z "},"P":{"ha":642,"x_min":38,"x_max":615,"o":"m 556 731 q 550 608 571 668 q 478 507 529 547 q 420 474 449 483 q 362 461 392 464 q 301 460 332 458 q 239 461 271 461 l 239 138 l 131 138 l 131 893 q 176 893 139 893 q 256 893 214 893 q 335 892 299 893 q 381 890 372 892 q 492 836 444 879 q 556 731 539 793 m 436 511 q 515 592 489 539 q 533 704 542 646 q 485 806 525 763 q 386 863 444 850 q 343 865 376 864 q 272 867 310 867 q 201 867 235 867 q 158 867 168 867 l 158 164 l 213 164 l 213 489 q 269 488 240 488 q 326 488 297 488 q 383 492 356 488 q 436 511 410 496 m 481 678 q 454 596 481 632 q 385 547 428 560 q 351 543 375 544 q 299 542 326 542 q 246 542 271 542 q 213 542 221 542 l 213 813 q 246 813 221 813 q 299 813 271 813 q 351 811 326 813 q 385 807 375 810 q 454 758 428 794 q 481 678 481 722 m 376 574 q 433 613 411 585 q 454 678 454 642 q 433 742 454 714 q 376 781 411 771 q 349 783 369 782 q 308 785 329 785 q 266 785 286 785 q 239 785 246 785 l 239 569 q 266 569 246 569 q 308 569 286 569 q 349 570 329 569 q 376 574 369 571 m 422 676 q 399 622 422 644 q 344 600 376 600 l 268 600 l 268 754 l 344 754 q 399 731 376 754 q 422 676 422 708 m 339 628 q 304 640 324 640 l 296 640 l 296 628 l 339 628 m 251 0 l 38 0 l 38 854 l 74 935 l 74 949 l 344 949 q 448 928 400 949 q 536 868 496 907 q 615 676 615 786 q 603 594 615 633 q 567 521 590 554 l 553 490 q 550 484 551 488 q 547 478 549 481 q 451 364 517 407 q 304 321 385 321 l 296 321 l 296 86 l 289 86 l 251 0 m 101 114 l 268 114 l 268 433 l 344 433 q 439 452 394 433 q 516 504 483 471 q 568 582 549 538 q 588 676 588 626 q 569 769 588 725 q 518 850 551 814 q 344 919 444 919 l 101 919 l 101 114 z "},"O":{"ha":642,"x_min":31,"x_max":610,"o":"m 486 832 q 528 780 514 807 q 549 725 543 753 q 556 667 556 697 q 556 604 556 636 l 556 357 q 538 272 556 310 q 492 206 521 233 q 426 162 464 178 q 347 144 388 146 q 267 156 307 142 q 192 201 226 169 q 150 253 164 226 q 130 308 136 281 q 123 367 124 336 q 122 429 122 397 l 122 676 q 160 797 122 746 q 253 871 197 847 q 372 887 308 894 q 486 832 435 879 m 528 583 q 529 640 528 613 q 527 694 531 667 q 514 747 524 721 q 482 799 504 772 q 382 858 439 847 q 274 851 325 869 q 186 786 222 832 q 150 676 150 740 l 150 450 q 149 394 150 421 q 151 340 147 367 q 164 286 154 313 q 196 235 174 260 q 297 175 239 186 q 406 183 354 164 q 492 247 457 201 q 528 357 528 292 l 528 583 m 474 492 q 474 455 474 481 q 474 401 475 429 q 472 347 474 372 q 465 308 469 321 q 401 238 444 257 q 315 226 358 218 q 238 268 271 235 q 204 357 204 301 l 204 542 q 203 578 204 553 q 203 633 203 604 q 206 687 204 661 q 214 725 208 713 q 278 796 235 776 q 365 807 321 815 q 441 765 408 799 q 474 676 474 732 l 474 492 m 447 349 q 449 431 450 390 q 447 513 447 472 l 447 676 q 432 733 447 710 q 394 769 417 757 q 343 783 371 782 q 292 773 315 783 q 251 740 268 763 q 231 683 233 718 q 229 602 228 643 q 231 521 231 561 l 231 357 q 263 278 231 306 q 335 250 296 251 q 409 273 375 249 q 447 349 443 297 m 299 0 q 160 38 224 0 q 61 142 97 75 q 38 205 46 172 q 31 282 31 238 l 31 571 q 38 642 31 611 q 57 701 44 672 l 61 711 l 63 713 l 61 713 l 75 742 l 76 746 q 97 801 85 774 q 199 908 135 868 q 339 947 263 947 q 478 908 414 947 q 579 801 543 868 q 602 737 594 769 q 610 660 610 704 l 610 371 q 602 293 610 326 q 579 231 594 260 l 565 207 l 546 165 l 546 167 l 544 165 l 546 165 l 535 142 q 437 38 500 75 q 299 0 374 0 m 96 371 q 124 243 96 294 q 213 147 156 182 q 339 113 269 113 q 465 147 407 113 q 554 243 522 182 q 575 301 568 271 q 582 371 582 331 l 582 660 q 575 731 582 700 q 554 790 568 763 q 465 885 522 850 q 339 919 407 919 q 213 885 269 919 q 124 790 156 850 q 102 731 108 763 q 96 660 96 700 l 96 371 m 339 278 q 284 301 307 278 q 261 356 261 324 l 261 661 q 265 698 261 679 q 288 735 268 717 q 339 753 307 753 q 393 731 371 753 q 415 676 415 708 l 415 371 q 412 335 415 354 q 389 297 408 315 q 365 283 378 289 q 339 278 353 278 m 292 690 l 300 708 l 299 707 l 292 692 l 292 690 m 289 356 q 304 321 289 336 q 339 306 319 306 q 351 307 346 306 l 351 588 q 335 624 351 608 q 299 640 319 640 q 294 640 296 640 q 289 639 292 639 l 289 356 z "},"A":{"ha":642,"x_min":33,"x_max":611,"o":"m 528 790 q 551 738 544 764 q 560 685 558 711 q 561 632 563 658 q 560 578 560 606 l 560 142 l 451 142 l 451 356 l 235 356 l 235 142 l 126 142 l 126 578 q 125 632 126 606 q 126 685 124 658 q 135 737 128 711 q 160 789 143 763 q 238 865 189 838 q 343 892 286 892 q 449 865 400 892 q 528 790 497 838 m 532 569 q 533 617 532 592 q 532 669 533 643 q 526 721 531 696 q 510 767 521 746 q 440 839 485 813 q 343 865 396 865 q 246 839 290 865 q 178 767 201 813 q 154 669 154 724 q 154 569 154 614 l 154 168 l 208 168 l 208 382 l 478 382 l 478 168 l 532 168 l 532 569 m 478 663 l 478 436 l 208 436 l 208 663 q 217 720 208 693 q 243 767 226 747 q 285 799 260 788 q 343 811 310 811 q 401 799 376 811 q 443 767 426 788 q 469 720 460 747 q 478 663 478 693 m 451 463 l 451 654 q 448 701 451 679 q 428 744 444 724 q 390 775 410 765 q 343 785 371 785 q 260 744 292 785 q 238 701 242 724 q 235 654 235 679 l 235 463 l 451 463 m 58 699 q 60 703 58 701 l 58 699 m 264 651 q 263 678 263 664 q 271 707 264 692 q 340 753 290 753 q 411 707 389 753 q 418 678 418 692 q 418 651 418 664 l 418 638 l 418 492 l 264 492 l 264 638 l 264 651 m 292 519 l 353 519 l 353 563 q 354 585 354 574 q 350 608 354 597 q 300 639 333 639 l 292 639 l 292 519 m 247 0 l 33 0 l 33 464 q 33 510 33 485 q 34 560 33 536 q 35 605 35 585 q 38 633 36 625 q 45 665 40 649 q 57 696 50 681 l 58 699 l 76 739 q 117 828 89 788 q 188 899 146 869 q 340 947 256 947 q 469 916 410 947 q 567 826 528 885 q 606 724 600 774 q 611 621 611 674 l 611 85 l 606 85 l 568 0 l 353 0 l 353 213 l 292 213 l 292 85 l 285 85 l 247 0 m 101 719 q 98 685 99 710 q 97 632 97 661 q 97 575 97 603 q 97 531 97 547 l 97 513 l 97 113 l 264 113 l 264 325 l 418 325 l 418 113 l 583 113 l 583 621 q 578 717 583 669 q 543 811 574 764 q 456 891 510 863 q 340 919 403 919 q 203 876 265 919 q 136 808 163 849 q 101 719 110 768 z "},"U":{"ha":642,"x_min":32,"x_max":611,"o":"m 558 464 q 560 409 558 436 q 559 356 561 382 q 550 303 557 329 q 526 250 543 276 q 449 174 497 201 q 343 147 400 147 q 238 174 286 147 q 158 250 189 201 q 135 303 142 276 q 126 356 128 329 q 125 409 124 382 q 126 464 126 436 l 126 894 l 235 894 l 235 688 l 235 633 l 235 440 q 235 413 235 429 q 235 379 235 397 q 238 345 236 361 q 244 318 240 329 q 285 272 258 289 q 343 254 311 254 q 401 272 375 254 q 442 318 428 289 q 448 345 446 329 q 451 379 450 361 q 451 413 451 397 q 451 440 451 429 l 451 654 l 451 688 l 451 894 l 558 894 l 558 464 m 508 272 q 526 319 521 293 q 532 372 531 344 q 533 424 533 399 q 532 471 532 450 l 532 868 l 478 868 l 478 688 l 478 654 l 478 419 q 477 353 478 385 q 456 289 476 321 q 407 244 436 261 q 343 228 378 228 q 278 244 308 228 q 229 289 249 261 q 208 353 208 321 q 208 419 208 385 l 208 633 l 208 688 l 208 868 l 154 868 l 154 471 q 153 424 154 450 q 154 372 153 399 q 160 319 156 344 q 176 272 165 293 q 246 200 201 226 q 343 174 290 174 q 440 200 396 174 q 508 272 483 226 m 300 0 q 162 38 225 0 q 63 142 99 75 q 40 204 47 171 q 32 282 32 238 l 32 854 l 69 935 l 69 947 l 292 947 l 292 372 q 297 338 292 351 q 308 317 301 325 q 324 308 315 310 q 340 306 333 306 q 353 307 347 306 l 353 854 l 389 935 l 389 947 l 611 947 l 611 371 q 579 229 611 285 l 565 208 l 547 167 q 544 160 547 165 l 535 142 q 491 87 517 113 q 435 42 465 61 q 369 11 404 22 q 300 0 335 0 m 97 371 q 125 243 97 294 q 215 147 157 182 q 340 113 272 113 q 465 147 408 113 q 554 243 522 182 q 576 301 569 271 q 583 371 583 331 l 583 919 l 417 919 l 417 372 q 408 323 417 342 q 389 294 400 304 q 364 281 378 285 q 340 278 350 278 q 316 281 329 278 q 291 294 303 285 q 272 323 279 304 q 264 372 264 342 l 264 919 l 97 919 l 97 371 z "},":":{"ha":301,"x_min":21,"x_max":281,"o":"m 171 251 q 207 236 192 251 q 222 199 222 221 q 207 160 222 175 q 171 144 192 144 q 133 160 149 144 q 118 199 118 175 q 133 236 118 221 q 171 251 149 251 m 196 199 q 189 217 196 210 q 171 225 182 225 q 152 217 160 225 q 144 199 144 210 q 152 179 144 188 q 171 171 160 171 q 189 179 182 171 q 196 199 196 188 m 229 71 l 229 69 l 229 71 m 31 150 q 33 157 31 154 l 31 150 m 168 307 q 248 275 215 307 q 281 196 281 243 q 254 125 281 158 l 228 68 q 229 69 228 69 l 226 64 l 228 67 q 226 64 226 65 q 187 18 213 36 q 128 0 161 0 q 53 31 85 0 q 21 107 21 63 q 31 150 21 132 l 33 158 l 33 157 l 33 161 l 60 217 q 97 282 67 257 q 168 307 128 307 m 265 150 l 265 149 l 265 150 m 168 113 q 228 137 204 113 q 253 196 253 161 q 228 256 253 232 q 168 279 204 279 q 110 256 135 279 q 86 196 86 232 q 110 137 86 161 q 168 113 135 113 m 171 892 q 207 876 192 892 q 222 839 222 861 q 207 800 222 815 q 171 785 192 785 q 133 800 149 785 q 118 839 118 815 q 133 876 118 861 q 171 892 149 892 m 196 839 q 189 858 196 850 q 171 865 182 865 q 152 858 160 865 q 144 839 144 850 q 152 819 144 828 q 171 811 160 811 q 189 819 182 811 q 196 839 196 828 m 229 711 l 229 710 l 229 711 m 31 790 q 33 797 31 794 l 31 790 m 168 947 q 248 915 215 947 q 281 836 281 883 q 254 765 281 799 l 228 708 q 229 710 228 710 l 226 704 l 228 707 q 226 704 226 706 q 187 658 213 676 q 128 640 161 640 q 53 672 85 640 q 21 747 21 703 q 31 790 21 772 l 33 799 l 33 797 l 33 801 l 60 857 q 97 922 67 897 q 168 947 128 947 m 265 790 l 265 789 l 265 790 m 168 753 q 228 777 204 753 q 253 836 253 801 q 228 896 253 872 q 168 919 204 919 q 110 896 135 919 q 86 836 86 872 q 110 777 86 801 q 168 753 135 753 z "},";":{"ha":301,"x_min":15,"x_max":281,"o":"m 171 892 q 207 876 192 892 q 222 839 222 861 q 207 800 222 815 q 171 785 192 785 q 133 800 149 785 q 118 839 118 815 q 133 876 118 861 q 171 892 149 892 m 196 839 q 189 858 196 850 q 171 865 182 865 q 152 858 160 865 q 144 839 144 850 q 152 819 144 828 q 171 811 160 811 q 189 819 182 811 q 196 839 196 828 m 229 711 l 229 710 l 229 711 m 31 790 q 33 797 31 794 l 31 790 m 168 947 q 248 915 215 947 q 281 836 281 883 q 254 765 281 799 l 228 708 q 229 710 228 710 l 226 704 l 228 707 q 226 704 226 706 q 187 658 213 676 q 128 640 161 640 q 53 672 85 640 q 21 747 21 703 q 31 790 21 772 l 33 799 l 33 797 l 33 801 l 60 857 q 97 922 67 897 q 168 947 128 947 m 265 790 l 265 789 l 265 790 m 168 753 q 228 777 204 753 q 253 836 253 801 q 228 896 253 872 q 168 919 204 919 q 110 896 135 919 q 86 836 86 872 q 110 777 86 801 q 168 753 135 753 m 222 204 q 206 115 224 153 q 154 40 189 76 q 152 49 153 44 q 150 58 151 54 q 147 67 149 63 q 144 74 146 71 q 132 102 138 89 q 122 131 126 115 q 118 149 119 140 q 115 167 117 158 q 114 181 114 172 l 114 199 l 114 201 q 128 240 114 224 q 167 257 143 256 q 206 242 190 257 q 222 204 222 226 m 164 97 q 196 204 196 144 q 187 224 196 215 q 167 231 178 232 q 147 222 151 229 q 142 200 142 214 q 140 196 142 197 q 142 176 140 183 q 146 151 142 164 q 153 123 149 136 q 164 97 158 110 m 28 153 q 29 157 28 156 l 28 153 m 276 206 l 278 201 l 278 196 q 266 117 278 154 q 232 44 254 79 l 214 3 l 215 8 l 213 1 l 214 3 l 208 -10 q 108 -133 179 -75 l 110 -132 q 100 -140 103 -139 q 90 -140 97 -140 q 76 -136 82 -140 q 64 -110 64 -129 q 62 -84 63 -99 q 58 -58 61 -69 q 53 -47 58 -56 q 44 -26 49 -37 l 36 -6 q 19 110 15 49 q 21 131 19 121 q 28 153 22 142 l 31 158 q 29 157 29 158 l 31 160 l 33 163 l 31 161 l 57 221 q 95 284 64 260 q 167 308 126 308 q 208 300 190 307 q 244 275 225 293 q 258 258 251 265 q 267 244 264 251 l 276 215 l 276 206 m 250 201 q 249 204 250 201 l 249 206 l 249 213 l 243 229 q 225 256 236 247 q 199 274 211 269 q 167 281 186 279 q 108 256 132 281 q 83 196 83 232 l 83 194 q 85 144 81 168 q 100 93 90 119 l 107 72 q 121 38 114 58 q 126 6 125 22 q 128 -24 128 -10 q 129 -26 128 -26 l 131 -26 q 133 -25 132 -26 q 250 196 250 71 l 250 199 l 250 200 l 250 201 z "},".":{"ha":303,"x_min":21,"x_max":281,"o":"m 171 251 q 207 236 192 251 q 222 199 222 221 q 207 160 222 175 q 171 144 192 144 q 133 160 149 144 q 118 199 118 175 q 133 236 118 221 q 171 251 149 251 m 196 199 q 189 217 196 210 q 171 225 182 225 q 152 217 160 225 q 144 199 144 210 q 152 179 144 188 q 171 171 160 171 q 189 179 182 171 q 196 199 196 188 m 229 71 l 229 69 l 229 71 m 31 150 q 33 157 31 154 l 31 150 m 168 307 q 248 275 215 307 q 281 196 281 243 q 254 125 281 158 l 228 68 q 229 69 228 69 l 226 64 l 228 67 q 226 64 226 65 q 187 18 213 36 q 128 0 161 0 q 53 31 85 0 q 21 107 21 63 q 31 150 21 132 l 33 158 l 33 157 l 33 161 l 60 217 q 97 282 67 257 q 168 307 128 307 m 265 150 l 265 149 l 265 150 m 168 113 q 228 137 204 113 q 253 196 253 161 q 228 256 253 232 q 168 279 204 279 q 110 256 135 279 q 86 196 86 232 q 110 137 86 161 q 168 113 135 113 z "},",":{"ha":301,"x_min":15,"x_max":278,"o":"m 222 204 q 206 115 224 153 q 154 40 189 76 q 152 49 153 44 q 150 58 151 54 q 147 67 149 63 q 144 74 146 71 q 132 102 138 89 q 122 131 126 115 q 118 149 119 140 q 115 167 117 158 q 114 181 114 172 l 114 199 l 114 201 q 128 240 114 224 q 167 257 143 256 q 206 242 190 257 q 222 204 222 226 m 164 97 q 196 204 196 144 q 187 224 196 215 q 167 231 178 232 q 147 222 151 229 q 142 200 142 214 q 140 196 142 197 q 142 176 140 183 q 146 151 142 164 q 153 123 149 136 q 164 97 158 110 m 28 153 q 29 157 28 156 l 28 153 m 276 206 l 278 201 l 278 196 q 266 117 278 154 q 232 44 254 79 l 214 3 l 215 8 l 213 1 l 214 3 l 208 -10 q 108 -133 179 -75 l 110 -132 q 100 -140 103 -139 q 90 -140 97 -140 q 76 -136 82 -140 q 64 -110 64 -129 q 62 -84 63 -99 q 58 -58 61 -69 q 53 -47 58 -56 q 44 -26 49 -37 l 36 -6 q 19 110 15 49 q 21 131 19 121 q 28 153 22 142 l 31 158 q 29 157 29 158 l 31 160 l 33 163 l 31 161 l 57 221 q 95 284 64 260 q 167 308 126 308 q 208 300 190 307 q 244 275 225 293 q 258 258 251 265 q 267 244 264 251 l 276 215 l 276 206 m 250 201 q 249 204 250 201 l 249 206 l 249 213 l 243 229 q 225 256 236 247 q 199 274 211 269 q 167 281 186 279 q 108 256 132 281 q 83 196 83 232 l 83 194 q 85 144 81 168 q 100 93 90 119 l 107 72 q 121 38 114 58 q 126 6 125 22 q 128 -24 128 -10 q 129 -26 128 -26 l 131 -26 q 133 -25 132 -26 q 250 196 250 71 l 250 199 l 250 200 l 250 201 z "},"G":{"ha":642,"x_min":29,"x_max":610,"o":"m 553 456 q 553 400 553 428 q 553 344 554 372 q 515 238 549 286 q 428 167 482 190 q 317 147 375 142 q 210 186 258 153 q 165 227 182 206 q 138 273 147 249 q 124 324 128 297 q 121 383 121 351 l 121 610 q 121 667 121 639 q 126 720 121 694 q 144 771 132 746 q 179 821 156 796 q 279 881 222 867 q 390 881 336 894 q 487 828 444 867 q 546 728 529 789 l 431 728 q 380 772 411 760 q 317 780 349 785 q 261 753 286 775 q 231 694 236 731 q 229 671 229 690 q 229 630 229 651 q 229 589 229 608 q 229 565 229 569 l 229 436 q 228 408 229 425 q 228 372 228 390 q 231 338 229 354 q 240 308 233 321 q 287 264 257 279 q 351 253 317 249 q 410 280 385 257 q 442 335 435 303 q 444 359 443 340 q 444 399 444 378 q 444 440 444 421 q 444 464 444 458 l 318 464 l 318 569 l 553 569 l 553 456 m 525 344 q 527 444 529 394 q 525 543 525 493 l 339 543 l 339 490 l 472 490 l 472 415 q 473 378 472 396 q 471 340 474 360 q 440 273 465 303 q 378 232 415 243 q 303 231 340 221 q 238 268 265 240 q 215 301 222 285 q 204 335 207 318 q 201 371 201 353 q 201 408 201 389 l 201 557 q 201 587 201 565 q 201 632 201 608 q 202 677 201 656 q 206 707 203 699 q 244 772 215 747 q 310 805 274 797 q 383 800 346 813 q 444 754 419 788 l 507 754 q 440 831 483 804 q 347 860 396 857 q 252 841 299 863 q 176 774 206 819 q 154 726 161 750 q 146 678 147 701 q 146 630 144 654 q 147 581 147 606 l 147 383 q 161 286 147 328 q 224 208 175 244 q 317 173 265 178 q 415 190 368 168 q 493 253 464 211 q 525 344 522 294 m 603 674 l 583 628 l 608 628 l 608 357 q 596 276 608 314 q 560 204 583 238 l 540 157 q 444 44 508 88 q 297 0 379 0 q 217 13 258 0 q 111 76 157 32 q 44 181 65 121 q 31 239 33 210 q 29 303 29 268 l 29 551 q 31 616 29 588 q 44 675 33 644 q 49 687 47 682 q 53 699 50 692 l 75 747 l 82 767 q 148 872 101 828 q 257 936 194 917 q 298 945 278 943 q 339 947 318 947 q 438 926 390 947 q 521 867 485 904 q 581 781 557 831 q 610 674 604 731 l 603 674 m 581 600 l 289 600 l 289 433 l 414 433 l 414 357 q 392 303 414 325 q 340 279 371 281 l 338 279 q 285 300 307 279 q 260 351 263 321 q 258 408 257 379 q 258 464 258 436 q 260 490 260 478 q 260 517 260 503 q 260 544 260 531 q 258 569 260 557 q 258 626 258 597 q 260 683 257 654 q 285 733 263 713 q 338 754 307 754 l 340 754 q 384 738 365 753 q 410 700 403 724 l 579 700 q 554 786 575 746 q 501 856 533 826 q 427 902 469 885 q 339 919 385 919 q 265 910 299 919 q 169 851 210 892 q 108 757 128 811 q 97 702 99 729 q 94 642 94 675 l 94 392 q 97 332 94 360 q 108 278 99 304 q 169 182 128 222 q 265 125 210 142 q 339 114 297 114 q 433 133 389 114 q 510 185 476 153 q 562 263 543 218 q 581 357 581 307 l 581 600 m 304 319 q 339 307 319 307 q 350 310 342 307 l 350 319 l 304 319 z "},"J":{"ha":642,"x_min":26,"x_max":606,"o":"m 550 608 q 550 579 550 601 q 550 527 550 557 q 550 464 550 497 q 549 401 550 431 q 548 349 549 371 q 546 319 547 326 q 503 224 535 263 q 430 167 472 186 q 340 146 388 147 q 250 162 293 144 q 173 215 207 179 q 125 307 139 251 l 240 307 q 276 269 254 283 q 324 253 299 256 q 373 260 349 251 q 415 290 397 269 q 438 335 435 313 q 442 386 442 358 l 442 488 l 442 897 l 550 897 l 550 608 m 524 361 l 524 869 l 469 869 l 469 447 q 471 395 469 421 q 468 342 472 369 q 451 292 464 313 q 415 253 439 271 q 367 230 393 236 q 315 227 340 224 q 266 244 289 231 q 226 279 243 257 l 164 279 q 220 208 185 233 q 295 176 256 183 q 376 177 335 168 q 449 210 417 186 q 503 273 482 235 q 524 361 524 311 m 65 351 q 64 360 64 353 l 282 360 q 304 322 289 336 q 336 307 319 308 q 350 310 339 307 l 350 317 q 349 344 350 332 q 349 372 349 357 l 349 854 l 385 936 l 385 947 l 606 947 l 606 392 q 604 326 606 356 q 592 267 603 297 q 578 234 586 250 q 558 204 569 218 l 544 169 q 539 158 540 164 q 472 67 515 107 q 375 11 428 28 q 334 2 354 4 q 294 0 314 0 q 196 21 242 0 q 114 77 150 42 q 55 161 78 113 q 26 267 32 210 l 65 351 m 578 246 l 579 247 l 579 249 l 578 246 m 94 332 q 119 246 99 286 q 172 176 139 206 q 246 129 204 146 q 335 113 288 113 q 408 122 374 113 q 504 181 463 140 q 565 275 546 222 q 576 331 575 303 q 578 392 578 358 l 578 919 l 413 919 l 413 681 l 413 515 l 413 463 q 414 406 414 435 q 411 350 414 378 q 387 300 408 321 q 336 279 365 279 l 332 279 q 288 294 308 281 q 261 332 268 308 l 94 332 z "},"C":{"ha":642,"x_min":32,"x_max":611,"o":"m 549 732 l 433 732 q 393 770 418 757 q 341 784 368 783 q 289 772 314 785 q 247 735 264 760 q 231 683 231 708 q 231 629 231 657 l 231 519 l 231 411 q 231 358 231 383 q 247 306 231 332 q 289 268 264 281 q 341 256 314 256 q 393 269 368 256 q 433 308 418 282 l 549 308 q 503 222 536 258 q 425 167 469 186 q 331 149 381 149 q 235 175 281 150 q 162 239 190 199 q 126 328 133 279 q 124 364 125 336 q 124 424 124 392 q 124 483 124 456 q 124 519 124 511 q 124 556 124 528 q 124 616 124 585 q 124 676 124 647 q 126 713 125 704 q 162 801 133 761 q 235 864 190 840 q 331 890 281 889 q 425 873 381 892 q 503 818 469 854 q 549 732 536 782 m 447 758 l 510 758 q 457 823 490 797 q 384 858 424 849 q 303 860 344 868 q 225 826 261 853 q 171 763 190 800 q 150 685 151 726 q 149 602 149 643 q 150 519 150 561 q 149 438 150 479 q 150 356 149 396 q 171 276 151 313 q 225 214 190 239 q 303 180 261 188 q 384 181 344 172 q 457 216 424 190 q 510 282 490 242 l 447 282 q 398 242 426 256 q 340 229 369 229 q 281 242 310 229 q 232 281 253 254 q 207 337 210 308 q 204 397 204 365 l 204 519 l 204 642 q 207 702 204 674 q 232 758 210 731 q 281 798 253 785 q 340 811 310 811 q 398 798 369 811 q 447 758 426 785 m 540 167 q 442 46 507 92 q 299 0 378 0 q 258 3 279 0 q 218 13 238 7 q 113 76 158 32 q 46 181 67 121 q 33 240 35 211 q 32 304 32 268 l 32 554 q 33 617 32 588 q 46 676 35 646 l 53 692 l 75 746 l 82 767 q 151 871 103 825 q 257 936 199 917 q 339 950 297 950 q 439 928 392 950 q 522 869 486 907 q 582 781 558 832 q 611 674 606 731 l 604 674 l 567 588 l 354 588 q 297 642 339 639 q 292 642 294 642 q 288 642 290 643 l 288 636 q 288 603 288 619 q 289 571 288 588 l 289 463 q 288 431 288 447 q 288 400 288 415 q 288 376 288 390 q 289 353 288 363 q 306 322 292 335 q 340 310 321 310 q 371 324 357 310 q 393 363 385 339 l 611 363 q 560 214 603 281 l 540 167 m 267 125 q 303 117 285 121 q 339 114 321 114 q 428 131 386 114 q 502 178 469 149 q 556 249 535 208 q 581 335 576 289 l 413 335 q 386 297 406 311 q 342 282 367 283 l 338 282 q 286 302 308 282 q 261 351 264 322 q 259 408 258 381 q 261 464 260 436 l 261 518 l 261 571 q 259 627 260 599 q 261 683 258 656 q 286 735 264 714 q 338 756 308 756 l 342 756 q 386 740 367 754 q 413 701 406 725 l 581 701 q 556 788 576 747 q 502 858 535 828 q 428 905 469 888 q 339 922 386 922 q 267 910 301 922 q 169 853 211 893 q 108 758 128 813 q 97 703 99 731 q 96 643 96 675 l 96 393 q 97 333 96 361 q 108 278 99 306 q 169 183 128 224 q 267 125 211 143 z "},"K":{"ha":642,"x_min":39,"x_max":622,"o":"m 533 889 l 344 519 l 533 149 l 413 149 l 242 485 l 242 149 l 133 149 l 133 889 l 242 889 l 242 553 l 413 889 l 533 889 l 533 889 m 315 519 l 489 863 l 429 863 l 254 519 l 429 175 l 489 175 l 315 519 l 315 519 m 214 175 l 214 575 l 214 597 l 214 863 l 161 863 l 161 175 l 214 175 l 214 175 m 372 947 l 622 947 l 407 517 l 621 86 l 611 86 l 574 0 l 335 0 l 294 86 l 292 86 l 254 0 l 39 0 l 39 854 l 76 936 l 76 947 l 297 947 l 297 797 l 372 947 m 576 114 l 376 517 l 576 919 l 390 919 l 269 678 l 269 778 l 269 919 l 104 919 l 104 114 l 269 114 l 269 254 l 271 363 l 390 114 l 576 114 z "},"L":{"ha":563,"x_min":40,"x_max":536,"o":"m 482 251 l 482 146 l 133 146 l 133 199 l 133 304 l 133 886 l 242 886 l 242 251 l 482 251 l 482 251 m 456 172 l 456 225 l 215 225 l 215 860 l 161 860 l 161 172 l 456 172 l 456 172 m 531 85 l 490 0 l 40 0 l 40 854 l 76 936 l 76 947 l 299 947 l 299 307 l 536 307 l 536 85 l 531 85 m 104 919 l 104 113 l 507 113 l 507 279 l 271 279 l 271 919 l 104 919 z "},"M":{"ha":972,"x_min":40,"x_max":939,"o":"m 886 663 l 886 144 l 779 144 l 779 356 l 779 410 l 779 597 q 779 623 779 607 q 778 656 779 639 q 776 690 778 674 q 769 717 774 706 q 729 761 756 744 q 671 778 703 778 q 613 761 639 778 q 572 717 586 744 q 566 690 568 706 q 563 656 564 674 q 563 623 563 639 q 563 597 563 607 l 563 388 l 563 356 l 563 144 l 454 144 l 454 356 l 454 408 l 454 597 q 455 623 454 607 q 455 656 456 639 q 452 690 454 674 q 444 717 450 706 q 404 761 431 744 q 346 778 378 778 q 288 761 314 778 q 247 717 261 744 q 241 690 243 706 q 238 656 239 674 q 238 623 238 639 q 238 597 238 607 l 238 388 l 238 356 l 238 144 l 131 144 l 131 663 q 163 785 131 731 q 263 867 196 839 q 393 878 328 893 q 454 854 428 871 q 508 818 481 838 q 563 854 536 838 q 624 878 589 871 q 754 867 689 893 q 853 785 821 840 q 886 663 886 731 m 860 171 l 860 656 q 831 772 860 721 q 735 846 801 822 q 667 858 697 858 q 611 847 638 857 q 560 821 585 838 q 508 785 535 804 q 457 821 482 804 q 406 847 432 838 q 349 858 379 857 q 282 846 319 858 q 186 772 215 822 q 157 656 157 721 l 157 171 l 211 171 l 211 356 l 211 388 l 211 618 q 212 682 211 651 q 233 744 213 713 q 282 788 253 772 q 346 804 311 804 q 410 788 381 804 q 460 744 440 772 q 481 682 481 713 q 482 618 482 651 l 482 408 l 482 356 l 482 171 l 536 171 l 536 356 l 536 388 l 536 618 q 536 682 536 651 q 557 744 536 713 q 606 788 576 772 q 671 804 636 804 q 735 788 706 804 q 783 744 764 772 q 805 682 804 713 q 806 618 806 651 l 806 410 l 806 356 l 806 171 l 860 171 m 679 0 l 679 571 q 674 608 679 594 q 660 630 668 622 q 644 640 653 638 q 626 642 635 642 q 623 642 625 642 q 618 642 621 643 l 618 86 l 611 86 l 574 0 l 360 0 l 360 571 q 354 608 360 594 q 340 630 349 622 q 323 640 332 638 q 307 642 314 642 q 302 642 304 642 q 297 642 300 643 l 297 86 l 292 86 l 254 0 l 40 0 l 40 590 q 63 696 40 650 l 64 700 q 65 703 64 703 l 68 707 l 69 715 l 69 714 l 71 715 l 69 715 l 85 750 q 161 874 103 819 q 247 930 199 910 q 349 950 296 950 q 507 894 435 950 q 665 950 582 950 q 767 931 718 950 q 854 875 815 911 q 916 785 894 835 q 938 679 938 736 l 938 582 q 938 488 938 535 q 938 383 939 440 l 938 86 l 932 86 l 894 0 l 679 0 m 667 756 q 691 752 678 756 q 716 739 704 749 q 736 710 728 729 q 744 661 744 692 l 744 114 l 910 114 l 910 286 q 910 679 913 482 q 835 854 910 783 q 756 904 800 886 q 665 922 713 922 q 590 909 626 922 q 521 872 553 896 l 507 863 l 493 872 q 424 909 461 896 q 349 922 388 922 q 258 904 301 922 q 179 854 214 886 q 124 775 143 819 q 104 679 104 731 q 103 482 103 581 q 104 285 104 383 l 104 114 l 271 114 l 271 661 q 278 710 271 692 q 298 739 286 729 q 323 752 310 749 q 347 756 336 756 q 372 752 358 756 q 397 739 385 749 q 416 710 408 729 q 424 661 424 692 l 424 114 l 590 114 l 590 661 q 599 710 590 692 q 618 739 607 729 q 642 752 629 749 q 667 756 656 756 z "},"N":{"ha":642,"x_min":35,"x_max":615,"o":"m 528 790 q 551 738 544 764 q 560 686 558 713 q 561 633 563 660 q 560 579 560 606 l 560 146 l 451 146 l 451 358 l 451 413 l 451 603 q 451 629 451 613 q 451 663 451 646 q 448 695 450 679 q 442 722 446 711 q 401 768 428 751 q 343 785 375 785 q 285 768 311 785 q 244 722 258 751 q 238 695 240 711 q 235 663 236 679 q 235 629 235 646 q 235 603 235 613 l 235 392 l 235 358 l 235 146 l 126 146 l 126 579 q 125 633 126 607 q 126 686 124 660 q 135 738 128 713 q 160 790 143 764 q 238 865 189 838 q 343 892 286 892 q 449 865 400 892 q 528 790 497 838 m 532 572 q 533 619 532 593 q 532 670 533 644 q 526 722 531 696 q 510 768 521 747 q 440 839 485 813 q 343 865 396 865 q 247 839 290 865 q 178 768 203 813 q 160 722 165 747 q 154 670 156 696 q 153 619 153 644 q 154 572 154 593 l 154 172 l 208 172 l 208 358 l 208 392 l 208 624 q 209 688 208 657 q 231 751 210 719 q 279 795 250 779 q 343 811 308 811 q 408 795 378 811 q 457 751 438 779 q 478 688 478 719 q 478 624 478 657 l 478 413 l 478 358 l 478 172 l 532 172 l 532 572 m 343 947 q 467 917 408 947 q 561 835 525 888 q 608 725 601 778 q 614 611 615 672 l 614 85 l 607 85 l 569 0 l 357 0 l 357 569 q 351 606 357 592 q 338 627 346 619 q 319 637 329 635 q 301 639 310 639 q 298 640 300 639 q 293 639 296 640 l 293 85 l 288 85 l 249 0 l 35 0 l 35 522 q 38 612 35 569 q 60 697 40 654 q 63 704 61 701 q 65 710 64 707 l 83 751 q 125 835 93 793 q 221 917 164 888 q 343 947 278 947 m 586 611 q 581 719 588 668 q 540 818 575 769 q 453 893 506 867 q 343 919 401 919 q 233 893 285 919 q 146 818 182 867 q 106 719 111 769 q 100 611 100 669 l 100 592 l 100 113 l 265 113 l 265 658 q 274 708 265 689 q 294 736 282 726 q 319 749 306 746 q 343 753 332 753 q 367 749 353 753 q 392 736 381 746 q 413 708 404 726 q 421 658 421 689 l 421 113 l 586 113 l 586 592 l 586 611 z "},"W":{"ha":967,"x_min":31,"x_max":931,"o":"m 879 890 l 879 372 q 846 248 879 303 q 746 165 813 193 q 683 149 714 151 q 617 154 651 147 q 555 178 582 161 q 501 215 528 196 q 447 178 474 196 q 385 154 421 161 q 319 149 350 147 q 256 165 289 151 q 156 248 189 193 q 122 371 122 303 l 122 890 l 231 890 l 231 679 l 231 625 l 231 438 q 231 410 231 426 q 231 377 231 394 q 234 344 232 360 q 240 317 236 328 q 281 272 254 289 q 339 256 307 256 q 397 272 371 256 q 438 317 424 289 q 444 344 442 328 q 447 377 446 360 q 447 410 447 394 q 447 436 447 425 l 447 646 l 447 679 l 447 890 l 556 890 l 556 679 l 556 626 l 556 438 q 555 410 556 426 q 555 377 554 394 q 558 344 556 360 q 564 317 560 328 q 604 272 578 289 q 663 256 631 256 q 721 272 694 256 q 761 317 747 289 q 769 344 767 328 q 772 377 771 360 q 772 410 772 394 q 771 436 771 425 l 771 646 l 771 679 l 771 890 l 879 890 m 853 378 l 853 864 l 799 864 l 799 679 l 799 646 l 799 415 q 798 352 799 383 q 776 289 797 321 q 727 245 757 261 q 663 229 697 229 q 599 245 628 229 q 550 289 569 261 q 528 352 529 321 q 528 415 528 383 l 528 626 l 528 679 l 528 864 l 474 864 l 474 679 l 474 646 l 474 415 q 473 352 474 383 q 451 289 472 321 q 403 245 432 261 q 339 229 374 229 q 274 245 304 229 q 225 289 244 261 q 204 352 204 321 q 204 415 204 383 l 204 625 l 204 679 l 204 864 l 150 864 l 150 378 q 178 262 150 313 q 274 188 207 211 q 341 175 311 175 q 397 185 371 175 q 449 212 424 194 q 501 249 474 229 q 553 212 528 229 q 604 185 578 194 q 660 174 631 175 q 728 188 690 174 q 824 262 794 211 q 853 378 853 313 m 708 947 l 931 947 l 931 354 q 882 203 928 271 l 879 193 l 869 175 l 869 176 l 867 169 l 867 168 l 865 165 l 865 164 l 863 156 q 837 112 851 132 q 803 72 822 92 q 718 19 767 39 q 618 0 669 0 q 535 12 575 0 q 463 50 496 24 l 458 54 q 384 13 425 26 q 300 0 343 0 q 200 19 247 0 q 114 72 153 39 q 55 160 75 108 q 32 265 35 213 q 31 366 31 314 q 31 486 31 418 q 31 643 31 554 q 32 854 32 732 l 68 936 l 68 947 l 290 947 l 290 374 q 295 338 290 351 q 308 318 300 325 q 324 309 315 311 q 339 307 332 307 q 351 308 347 307 l 351 854 l 389 936 l 389 947 l 610 947 l 610 374 q 615 338 610 351 q 627 318 619 325 q 644 309 635 311 q 660 307 653 307 q 672 308 667 307 l 672 854 l 708 936 l 708 947 m 900 240 q 901 243 901 242 l 900 240 m 736 374 q 728 324 736 343 q 708 296 719 306 q 683 283 697 286 q 660 279 669 279 q 635 283 649 279 q 610 296 622 286 q 590 324 599 306 q 582 374 582 343 l 582 919 l 417 919 l 417 374 q 408 324 417 343 q 388 296 400 306 q 363 283 376 286 q 339 279 350 279 q 315 283 328 279 q 290 296 301 286 q 270 324 278 306 q 263 374 263 343 l 263 919 l 96 919 l 96 747 q 96 354 93 553 q 115 259 96 304 q 171 179 135 214 q 249 130 206 147 q 340 113 293 113 q 416 125 379 113 q 485 163 453 138 l 499 174 l 513 163 q 658 113 576 113 q 749 130 704 113 q 826 179 793 147 q 882 259 863 214 q 903 354 901 304 q 903 552 904 454 q 903 747 903 650 l 903 919 l 736 919 l 736 374 z "},"Y":{"ha":642,"x_min":31,"x_max":610,"o":"m 556 901 q 557 761 556 831 q 556 621 558 692 q 543 551 554 582 q 508 492 532 521 q 456 446 485 463 q 394 415 426 429 l 394 138 l 286 138 l 286 415 q 225 446 254 429 q 172 492 196 463 q 137 551 149 521 q 124 621 125 582 q 122 761 121 692 q 124 901 124 831 l 232 901 l 232 679 q 232 625 232 651 q 247 571 232 599 q 288 533 263 547 q 340 519 313 519 q 392 533 368 519 q 432 571 417 547 q 448 625 449 599 q 447 679 447 651 l 447 901 l 556 901 m 528 614 q 530 678 531 646 q 529 744 529 711 l 529 874 l 475 874 l 475 644 q 441 537 475 582 q 340 492 407 492 q 239 537 274 492 q 204 644 204 582 l 204 874 l 150 874 l 150 743 q 149 678 150 711 q 151 614 149 646 q 167 551 154 578 q 203 497 179 524 q 255 459 226 472 q 313 432 283 446 l 313 165 l 367 165 l 367 432 q 426 459 397 446 q 478 497 454 472 q 513 551 501 524 q 528 614 525 578 m 192 289 q 74 389 117 322 q 31 538 31 456 l 31 853 l 68 935 l 68 946 l 289 946 l 289 640 q 294 605 289 618 q 306 585 299 592 q 323 576 314 578 q 339 574 332 574 l 351 574 l 351 853 l 388 935 l 388 946 l 610 946 l 610 628 q 597 544 610 583 q 560 469 583 504 l 554 454 l 546 438 l 546 439 l 542 425 q 502 365 525 393 q 450 314 479 336 l 450 86 l 443 86 l 406 0 l 192 0 l 192 289 m 363 579 q 364 581 363 579 l 388 632 l 363 579 m 96 628 q 135 490 96 551 q 242 399 174 429 l 256 394 l 256 113 l 422 113 l 422 394 l 436 399 q 542 490 503 429 q 582 628 582 551 l 582 918 l 415 918 l 415 640 q 408 591 415 610 q 388 563 400 572 q 363 549 376 553 q 339 546 350 546 q 315 549 328 546 q 290 563 301 553 q 269 591 278 572 q 261 640 261 610 l 261 918 l 96 918 l 96 628 z "},"S":{"ha":642,"x_min":29,"x_max":611,"o":"m 550 732 l 435 732 q 404 765 422 751 q 365 783 386 778 q 322 783 344 788 q 281 767 300 779 q 249 735 261 754 q 234 696 238 717 q 235 653 231 675 q 256 614 240 632 q 289 585 271 594 q 333 574 307 575 q 376 569 356 571 q 418 558 397 567 q 492 513 460 543 q 542 442 524 482 q 558 355 560 399 q 538 272 556 311 q 487 203 519 233 q 410 160 454 174 q 320 149 365 144 q 238 174 275 154 q 172 229 200 194 q 132 308 143 264 l 247 308 q 278 276 260 289 q 317 258 296 263 q 360 257 338 253 q 401 274 382 261 q 433 305 421 286 q 448 344 444 324 q 446 387 451 365 q 426 426 440 408 q 393 455 411 446 q 349 467 375 464 q 306 471 326 468 q 264 481 285 474 q 190 527 222 496 q 140 599 158 558 q 124 684 122 640 q 144 767 126 728 q 195 835 163 806 q 272 879 228 864 q 362 889 317 893 q 444 865 407 885 q 510 810 482 844 q 550 732 539 776 m 449 758 l 513 758 q 459 824 493 799 q 385 859 425 850 q 302 860 344 868 q 224 824 260 851 q 170 758 188 796 q 152 681 153 721 q 169 601 151 640 q 222 535 186 563 q 300 497 256 507 q 340 494 319 493 q 381 488 361 494 q 449 441 424 475 q 476 363 475 407 q 450 281 476 314 q 385 236 424 249 q 304 233 346 224 q 233 282 263 243 l 169 282 q 223 216 189 242 q 297 181 257 190 q 380 179 338 171 q 458 215 422 188 q 511 281 493 243 q 530 360 529 319 q 513 439 531 400 q 460 506 494 478 q 382 542 426 531 q 342 546 363 546 q 301 553 321 546 q 233 599 258 565 q 206 676 207 633 q 232 757 206 724 q 297 803 258 790 q 378 807 336 817 q 449 758 419 797 m 486 79 q 387 15 438 31 q 300 0 336 0 q 199 19 249 0 q 113 72 150 38 q 29 268 42 140 l 67 351 q 65 361 65 356 l 154 361 q 92 415 119 383 q 50 485 65 446 q 31 589 31 533 q 54 696 31 644 q 58 710 56 701 l 75 746 q 146 868 92 814 q 247 933 196 918 q 336 949 299 949 q 438 929 389 949 q 525 874 486 910 q 582 790 561 842 q 611 672 603 738 l 604 672 l 567 588 l 479 588 q 588 460 551 543 q 610 357 610 404 q 598 278 610 317 q 563 207 586 240 l 546 167 l 542 158 q 486 79 521 114 m 96 333 q 169 181 104 242 q 249 131 204 149 q 340 113 293 113 q 419 126 374 113 q 510 185 465 140 q 576 308 563 238 q 563 450 590 379 q 474 560 533 519 q 338 600 414 600 q 295 613 314 600 q 267 647 276 625 q 263 692 258 669 q 283 731 267 715 q 338 753 306 753 q 383 738 363 753 q 411 700 404 724 l 581 700 q 556 784 575 744 q 506 853 538 824 q 426 903 471 885 q 336 921 382 921 q 256 907 301 921 q 167 849 211 893 q 99 725 114 796 q 113 583 85 654 q 202 474 142 514 q 338 433 263 433 q 381 421 361 433 q 410 385 400 408 q 413 342 418 364 q 393 303 408 319 q 339 279 369 279 q 292 294 313 279 q 264 333 272 310 l 96 333 m 311 318 q 329 308 321 310 q 311 318 324 315 m 328 629 q 317 635 321 632 q 306 640 313 639 q 328 629 317 629 z "},"T":{"ha":589,"x_min":31,"x_max":558,"o":"m 506 892 l 506 786 l 367 786 l 367 151 l 258 151 l 258 786 l 122 786 l 122 892 l 506 892 l 506 892 m 478 813 l 478 865 l 149 865 l 149 813 l 285 813 l 285 178 l 339 178 l 339 813 l 478 813 l 478 813 m 67 936 l 67 947 l 558 947 l 558 726 l 553 726 l 514 640 l 422 640 l 422 86 l 415 86 l 378 0 l 164 0 l 164 640 l 31 640 l 31 854 l 67 936 m 94 919 l 94 754 l 228 754 l 228 114 l 394 114 l 394 754 l 531 754 l 531 919 l 94 919 z "},"V":{"ha":642,"x_min":33,"x_max":611,"o":"m 543 893 l 424 151 l 249 151 l 129 893 l 239 893 l 336 288 l 433 893 l 543 893 l 543 893 m 400 178 l 511 867 l 457 867 l 357 246 l 315 246 l 215 867 l 161 867 l 271 178 l 326 178 l 346 178 l 400 178 l 400 178 m 386 949 l 611 949 l 478 86 l 471 86 l 433 0 l 168 0 l 33 854 l 71 939 l 69 949 l 294 949 l 328 721 l 350 854 l 383 931 l 386 949 m 451 114 l 579 921 l 411 921 l 340 456 l 317 618 l 269 921 l 101 921 l 229 114 l 451 114 z "},"X":{"ha":642,"x_min":11,"x_max":631,"o":"m 549 889 l 397 515 l 549 140 l 432 140 l 339 371 l 246 140 l 129 140 l 281 515 l 129 889 l 246 889 l 339 660 l 432 889 l 549 889 m 368 515 l 508 863 l 450 863 l 339 588 l 228 863 l 169 863 l 310 515 l 169 168 l 228 168 l 339 443 l 450 168 l 508 168 l 368 515 m 631 947 l 458 517 l 493 428 q 564 253 526 344 q 631 85 601 161 l 622 85 l 583 0 l 353 0 l 301 128 l 285 85 l 281 85 l 243 0 l 11 0 l 63 128 l 182 426 q 140 531 163 476 q 97 641 118 586 q 53 750 75 696 q 11 854 31 804 l 50 939 l 46 947 l 285 947 l 338 818 q 353 854 343 838 l 357 863 l 392 947 l 631 947 m 428 517 l 589 919 l 410 919 l 338 740 l 267 919 l 88 919 l 249 517 l 88 113 l 267 113 l 338 292 l 410 113 l 589 113 l 428 517 z "},"Q":{"ha":642,"x_min":33,"x_max":613,"o":"m 560 639 l 560 404 q 558 338 560 365 q 550 288 557 311 q 528 242 543 265 q 488 188 514 218 l 529 86 l 414 86 l 388 139 q 327 139 356 138 q 272 149 299 140 q 222 173 246 157 q 175 217 199 189 q 143 270 153 243 q 130 325 133 297 q 127 381 126 353 q 128 440 128 410 l 128 676 q 160 788 128 738 q 246 867 192 839 q 360 888 300 893 q 471 847 421 883 q 543 755 526 806 q 560 639 560 704 m 532 614 q 531 670 532 643 q 523 723 529 697 q 503 772 517 749 q 465 815 490 794 q 366 862 424 854 q 256 842 308 869 q 178 766 201 814 q 154 660 154 718 l 154 438 q 153 382 154 410 q 156 328 153 354 q 170 277 160 303 q 203 228 181 251 q 249 190 225 203 q 299 172 274 176 q 351 167 324 167 q 407 168 378 167 l 431 113 l 489 113 l 454 193 q 494 244 479 224 q 518 284 510 264 q 529 328 526 304 q 532 392 532 353 l 532 614 m 479 488 q 479 451 479 476 q 478 396 479 425 q 476 341 478 367 q 468 303 474 315 q 404 232 447 251 q 317 221 361 213 q 241 263 274 229 q 208 354 208 297 l 208 536 q 208 574 208 549 q 208 629 208 600 q 210 685 208 658 q 215 724 211 711 q 281 794 236 775 q 369 806 325 814 q 446 763 413 797 q 479 674 479 729 l 479 488 m 451 343 q 453 428 454 388 q 451 510 451 469 l 451 674 q 436 732 451 708 q 398 768 421 756 q 347 782 375 781 q 296 772 319 783 q 255 738 272 761 q 235 681 238 715 q 233 600 232 640 q 235 518 235 560 l 235 354 q 267 274 235 301 q 338 245 299 247 q 413 267 378 243 q 451 343 447 292 m 390 300 q 367 285 379 289 q 342 282 354 282 q 287 303 310 282 q 264 357 264 325 l 264 660 q 267 696 264 678 q 292 732 271 714 q 339 751 310 751 q 392 728 371 751 q 414 674 414 706 l 414 369 q 411 335 414 354 q 390 300 408 317 m 292 357 q 307 322 292 336 q 342 308 322 308 q 353 311 347 308 l 353 585 q 338 623 353 607 q 299 639 322 639 q 292 639 292 639 l 292 357 m 299 0 q 180 30 236 0 q 88 110 124 60 q 40 219 47 164 q 33 332 33 274 l 33 346 l 33 360 l 33 372 q 33 481 33 436 q 33 556 33 526 q 34 600 33 585 q 36 622 35 615 q 45 658 40 640 q 57 692 50 676 l 57 694 l 60 697 l 79 740 q 132 846 93 799 q 221 917 171 893 q 278 938 249 929 q 339 947 308 947 q 441 927 393 947 q 526 873 489 907 q 585 792 563 839 q 610 692 607 746 l 610 601 l 610 574 l 610 561 l 610 421 q 604 308 610 358 q 565 207 599 258 l 551 176 l 613 32 l 606 32 l 568 -51 l 333 -51 l 315 0 l 299 0 m 146 211 q 230 140 178 167 q 339 113 282 113 l 350 113 l 367 115 l 390 61 l 569 61 l 517 188 l 525 199 q 559 251 547 225 q 576 303 571 276 q 583 360 582 331 q 583 421 583 389 l 583 561 l 583 601 l 583 689 q 560 779 581 738 q 506 851 539 821 q 431 899 474 882 q 339 917 388 917 q 285 911 311 917 q 232 890 258 906 q 144 817 179 867 q 100 708 108 767 q 98 692 99 704 q 97 652 97 679 q 97 580 97 625 q 97 467 97 535 l 97 447 l 97 421 q 98 366 97 393 q 103 313 99 339 q 117 262 107 288 q 146 211 126 236 z "},"a":{"ha":642,"x_min":33,"x_max":611,"o":"m 528 790 q 551 738 544 764 q 560 685 558 711 q 561 632 563 658 q 560 578 560 606 l 560 142 l 451 142 l 451 356 l 235 356 l 235 142 l 126 142 l 126 578 q 125 632 126 606 q 126 685 124 658 q 135 737 128 711 q 160 789 143 763 q 238 865 189 838 q 343 892 286 892 q 449 865 400 892 q 528 790 497 838 m 532 569 q 533 617 532 592 q 532 669 533 643 q 526 721 531 696 q 510 767 521 746 q 440 839 485 813 q 343 865 396 865 q 246 839 290 865 q 178 767 201 813 q 154 669 154 724 q 154 569 154 614 l 154 168 l 208 168 l 208 382 l 478 382 l 478 168 l 532 168 l 532 569 m 478 663 l 478 436 l 208 436 l 208 663 q 217 720 208 693 q 243 767 226 747 q 285 799 260 788 q 343 811 310 811 q 401 799 376 811 q 443 767 426 788 q 469 720 460 747 q 478 663 478 693 m 451 463 l 451 654 q 448 701 451 679 q 428 744 444 724 q 390 775 410 765 q 343 785 371 785 q 260 744 292 785 q 238 701 242 724 q 235 654 235 679 l 235 463 l 451 463 m 58 699 q 60 703 58 701 l 58 699 m 264 651 q 263 678 263 664 q 271 707 264 692 q 340 753 290 753 q 411 707 389 753 q 418 678 418 692 q 418 651 418 664 l 418 638 l 418 492 l 264 492 l 264 638 l 264 651 m 292 519 l 353 519 l 353 563 q 354 585 354 574 q 350 608 354 597 q 300 639 333 639 l 292 639 l 292 519 m 247 0 l 33 0 l 33 464 q 33 510 33 485 q 34 560 33 536 q 35 605 35 585 q 38 633 36 625 q 45 665 40 649 q 57 696 50 681 l 58 699 l 76 739 q 117 828 89 788 q 188 899 146 869 q 340 947 256 947 q 469 916 410 947 q 567 826 528 885 q 606 724 600 774 q 611 621 611 674 l 611 85 l 606 85 l 568 0 l 353 0 l 353 213 l 292 213 l 292 85 l 285 85 l 247 0 m 101 719 q 98 685 99 710 q 97 632 97 661 q 97 575 97 603 q 97 531 97 547 l 97 513 l 97 113 l 264 113 l 264 325 l 418 325 l 418 113 l 583 113 l 583 621 q 578 717 583 669 q 543 811 574 764 q 456 891 510 863 q 340 919 403 919 q 203 876 265 919 q 136 808 163 849 q 101 719 110 768 z "},"b":{"ha":642,"x_min":36,"x_max":614,"o":"m 239 144 l 133 144 l 133 892 l 239 892 q 317 893 279 892 q 390 888 354 894 q 457 861 425 881 q 518 801 489 842 q 552 732 543 767 q 557 656 561 697 q 533 581 551 613 q 492 518 515 550 q 533 454 515 486 q 557 381 551 422 q 552 303 561 338 q 518 233 543 268 q 457 174 489 193 q 390 148 425 154 q 317 143 354 142 q 239 144 279 144 m 528 643 q 528 715 535 683 q 500 782 522 747 q 451 834 478 815 q 383 861 424 853 q 311 866 347 868 q 239 864 275 864 l 160 864 l 160 171 l 239 171 q 311 169 275 171 q 383 175 347 168 q 451 201 424 183 q 500 254 478 219 q 528 320 522 288 q 528 393 535 353 q 501 460 521 432 q 458 518 481 489 q 501 576 481 547 q 528 643 521 604 m 383 806 q 451 758 425 793 q 478 678 478 722 q 451 598 478 633 q 383 550 425 563 q 349 546 374 547 q 298 544 325 544 q 247 544 271 544 q 213 544 222 544 l 213 811 q 247 811 222 811 q 298 811 271 811 q 349 810 325 811 q 383 806 374 808 m 375 575 q 431 614 410 586 q 451 678 451 642 q 431 742 451 714 q 375 781 410 769 q 349 783 368 782 q 307 785 329 785 q 265 785 285 785 q 239 785 246 785 l 239 571 q 265 571 246 571 q 307 571 285 571 q 349 572 329 571 q 375 575 368 572 m 383 486 q 451 438 425 474 q 478 357 478 401 q 451 277 478 313 q 383 229 425 242 q 349 225 374 226 q 298 224 325 224 q 247 224 271 224 q 213 224 222 224 l 213 492 q 247 492 222 492 q 298 492 271 492 q 349 490 325 492 q 383 486 374 489 m 375 256 q 431 293 410 265 q 451 357 451 321 q 431 422 451 393 q 375 460 410 450 q 349 463 368 461 q 307 464 329 464 q 265 464 285 464 q 239 464 246 464 l 239 251 q 265 251 246 251 q 307 251 285 251 q 349 252 329 251 q 375 256 368 253 m 542 149 q 442 41 506 82 q 303 0 378 0 l 36 0 l 36 854 l 72 935 l 72 947 l 343 947 q 484 907 419 947 q 585 797 549 867 q 614 675 614 739 q 568 526 614 599 l 561 514 q 614 358 614 440 q 585 238 614 296 q 577 222 582 229 q 568 208 572 215 l 542 149 m 100 114 l 343 114 q 471 149 414 114 q 560 249 528 185 q 586 379 592 313 q 538 503 581 446 l 528 517 l 538 531 q 586 655 581 588 q 560 786 592 722 q 471 885 528 850 q 343 919 414 919 l 100 919 l 100 114 m 422 676 q 400 622 422 644 q 346 600 378 600 l 269 600 l 269 754 l 346 754 q 400 731 378 754 q 422 676 422 708 m 340 628 q 324 637 333 633 q 306 640 315 640 l 297 640 l 297 628 l 340 628 m 422 357 q 400 302 422 325 q 346 279 378 279 l 269 279 l 269 433 l 346 433 q 400 411 378 433 q 422 357 422 389 m 340 307 q 306 319 325 319 l 297 319 l 297 307 l 340 307 z "},"c":{"ha":642,"x_min":32,"x_max":611,"o":"m 549 732 l 433 732 q 393 770 418 757 q 341 784 368 783 q 289 772 314 785 q 247 735 264 760 q 231 683 231 708 q 231 629 231 657 l 231 519 l 231 411 q 231 358 231 383 q 247 306 231 332 q 289 268 264 281 q 341 256 314 256 q 393 269 368 256 q 433 308 418 282 l 549 308 q 503 222 536 258 q 425 167 469 186 q 331 149 381 149 q 235 175 281 150 q 162 239 190 199 q 126 328 133 279 q 124 364 125 336 q 124 424 124 392 q 124 483 124 456 q 124 519 124 511 q 124 556 124 528 q 124 616 124 585 q 124 676 124 647 q 126 713 125 704 q 162 801 133 761 q 235 864 190 840 q 331 890 281 889 q 425 873 381 892 q 503 818 469 854 q 549 732 536 782 m 447 758 l 510 758 q 457 823 490 797 q 384 858 424 849 q 303 860 344 868 q 225 826 261 853 q 171 763 190 800 q 150 685 151 726 q 149 602 149 643 q 150 519 150 561 q 149 438 150 479 q 150 356 149 396 q 171 276 151 313 q 225 214 190 239 q 303 180 261 188 q 384 181 344 172 q 457 216 424 190 q 510 282 490 242 l 447 282 q 398 242 426 256 q 340 229 369 229 q 281 242 310 229 q 232 281 253 254 q 207 337 210 308 q 204 397 204 365 l 204 519 l 204 642 q 207 702 204 674 q 232 758 210 731 q 281 798 253 785 q 340 811 310 811 q 398 798 369 811 q 447 758 426 785 m 540 167 q 442 46 507 92 q 299 0 378 0 q 258 3 279 0 q 218 13 238 7 q 113 76 158 32 q 46 181 67 121 q 33 240 35 211 q 32 304 32 268 l 32 554 q 33 617 32 588 q 46 676 35 646 l 53 692 l 75 746 l 82 767 q 151 871 103 825 q 257 936 199 917 q 339 950 297 950 q 439 928 392 950 q 522 869 486 907 q 582 781 558 832 q 611 674 606 731 l 604 674 l 567 588 l 354 588 q 297 642 339 639 q 292 642 294 642 q 288 642 290 643 l 288 636 q 288 603 288 619 q 289 571 288 588 l 289 463 q 288 431 288 447 q 288 400 288 415 q 288 376 288 390 q 289 353 288 363 q 306 322 292 335 q 340 310 321 310 q 371 324 357 310 q 393 363 385 339 l 611 363 q 560 214 603 281 l 540 167 m 267 125 q 303 117 285 121 q 339 114 321 114 q 428 131 386 114 q 502 178 469 149 q 556 249 535 208 q 581 335 576 289 l 413 335 q 386 297 406 311 q 342 282 367 283 l 338 282 q 286 302 308 282 q 261 351 264 322 q 259 408 258 381 q 261 464 260 436 l 261 518 l 261 571 q 259 627 260 599 q 261 683 258 656 q 286 735 264 714 q 338 756 308 756 l 342 756 q 386 740 367 754 q 413 701 406 725 l 581 701 q 556 788 576 747 q 502 858 535 828 q 428 905 469 888 q 339 922 386 922 q 267 910 301 922 q 169 853 211 893 q 108 758 128 813 q 97 703 99 731 q 96 643 96 675 l 96 393 q 97 333 96 361 q 108 278 99 306 q 169 183 128 224 q 267 125 211 143 z "},"d":{"ha":642,"x_min":31,"x_max":608,"o":"m 556 681 l 556 357 q 538 273 556 313 q 492 204 521 233 q 423 158 463 175 q 339 140 383 140 l 285 140 l 124 140 l 124 897 l 232 897 l 285 897 l 339 897 q 423 880 383 897 q 492 833 463 863 q 538 765 521 804 q 556 681 556 725 m 528 357 l 528 681 q 513 754 528 719 q 473 815 499 789 q 413 855 447 840 q 339 869 378 869 l 285 869 l 232 869 l 150 869 l 150 167 l 285 167 l 313 167 l 339 167 q 413 181 378 167 q 473 222 447 196 q 513 283 499 249 q 528 357 528 317 m 475 681 l 475 357 q 435 260 475 300 q 339 221 396 221 l 204 221 l 204 411 l 204 735 l 204 815 l 339 815 q 435 776 396 815 q 475 681 475 738 m 447 357 l 447 681 q 415 757 447 725 q 339 789 383 789 l 232 789 l 232 735 l 232 411 l 232 249 l 339 249 q 415 281 383 249 q 447 357 447 313 m 540 156 q 444 43 508 86 q 297 0 379 0 l 31 0 l 31 854 l 67 935 l 67 947 l 338 947 q 444 926 394 947 q 530 869 493 906 q 588 783 567 832 q 608 676 608 733 l 608 357 q 560 200 608 268 l 546 168 q 543 163 544 165 q 540 156 542 160 m 338 113 q 432 132 388 113 q 510 185 476 151 q 562 263 543 218 q 581 357 581 307 l 581 676 q 562 771 581 726 q 510 849 543 815 q 432 901 476 882 q 338 919 388 919 l 94 919 l 94 113 l 338 113 m 415 354 q 399 308 414 328 q 360 282 383 289 q 324 278 340 278 l 304 278 q 294 279 297 279 q 285 279 290 279 l 261 279 l 261 750 q 302 752 274 751 q 363 740 331 753 q 392 720 381 733 q 408 692 403 707 q 414 661 413 676 q 415 636 415 646 l 415 625 l 415 490 l 415 444 l 415 354 m 356 442 q 355 541 356 493 q 351 607 354 589 q 339 631 349 624 q 318 640 329 638 q 289 642 304 643 l 289 307 q 299 307 293 307 q 308 306 306 307 l 324 306 q 338 306 331 306 q 351 308 344 307 l 356 310 l 356 442 z "},"e":{"ha":642,"x_min":31,"x_max":610,"o":"m 557 253 l 557 146 l 286 146 l 232 146 l 124 146 l 126 890 l 232 890 l 286 890 l 557 890 l 557 785 l 229 785 l 229 571 l 557 571 l 557 464 l 229 464 l 229 253 l 557 253 l 557 253 m 529 172 l 529 225 l 203 225 l 203 490 l 529 490 l 529 543 l 203 543 l 203 811 l 529 811 l 529 864 l 286 864 l 232 864 l 153 864 l 153 172 l 232 172 l 286 172 l 529 172 l 529 172 m 603 85 l 565 0 l 31 0 l 31 854 l 68 935 l 68 947 l 610 947 l 610 725 l 603 725 l 565 639 l 289 639 l 289 626 l 610 626 l 610 406 l 603 406 l 565 319 l 289 319 l 289 307 l 610 307 l 610 85 l 603 85 m 94 919 l 94 113 l 582 113 l 582 279 l 261 279 l 261 433 l 582 433 l 582 599 l 261 599 l 261 753 l 582 753 l 582 919 l 94 919 z "},"f":{"ha":642,"x_min":33,"x_max":611,"o":"m 557 571 l 557 463 l 232 463 l 232 138 l 124 138 l 124 894 l 232 894 l 286 894 l 557 894 l 557 786 l 232 786 l 232 571 l 557 571 l 557 571 m 529 489 l 529 543 l 206 543 l 206 814 l 529 814 l 529 868 l 151 868 l 151 165 l 206 165 l 206 489 l 529 489 l 529 489 m 285 85 l 247 0 l 33 0 l 33 854 l 69 935 l 69 947 l 611 947 l 611 725 l 606 725 l 567 640 l 292 640 l 292 628 l 611 628 l 611 406 l 606 406 l 567 319 l 292 319 l 292 85 l 285 85 m 97 919 l 97 113 l 264 113 l 264 433 l 583 433 l 583 600 l 264 600 l 264 753 l 583 753 l 583 919 l 97 919 z "},"g":{"ha":642,"x_min":29,"x_max":610,"o":"m 553 456 q 553 400 553 428 q 553 344 554 372 q 515 238 549 286 q 428 167 482 190 q 317 147 375 142 q 210 186 258 153 q 165 227 182 206 q 138 273 147 249 q 124 324 128 297 q 121 383 121 351 l 121 610 q 121 667 121 639 q 126 720 121 694 q 144 771 132 746 q 179 821 156 796 q 279 881 222 867 q 390 881 336 894 q 487 828 444 867 q 546 728 529 789 l 431 728 q 380 772 411 760 q 317 780 349 785 q 261 753 286 775 q 231 694 236 731 q 229 671 229 690 q 229 630 229 651 q 229 589 229 608 q 229 565 229 569 l 229 436 q 228 408 229 425 q 228 372 228 390 q 231 338 229 354 q 240 308 233 321 q 287 264 257 279 q 351 253 317 249 q 410 280 385 257 q 442 335 435 303 q 444 359 443 340 q 444 399 444 378 q 444 440 444 421 q 444 464 444 458 l 318 464 l 318 569 l 553 569 l 553 456 m 525 344 q 527 444 529 394 q 525 543 525 493 l 339 543 l 339 490 l 472 490 l 472 415 q 473 378 472 396 q 471 340 474 360 q 440 273 465 303 q 378 232 415 243 q 303 231 340 221 q 238 268 265 240 q 215 301 222 285 q 204 335 207 318 q 201 371 201 353 q 201 408 201 389 l 201 557 q 201 587 201 565 q 201 632 201 608 q 202 677 201 656 q 206 707 203 699 q 244 772 215 747 q 310 805 274 797 q 383 800 346 813 q 444 754 419 788 l 507 754 q 440 831 483 804 q 347 860 396 857 q 252 841 299 863 q 176 774 206 819 q 154 726 161 750 q 146 678 147 701 q 146 630 144 654 q 147 581 147 606 l 147 383 q 161 286 147 328 q 224 208 175 244 q 317 173 265 178 q 415 190 368 168 q 493 253 464 211 q 525 344 522 294 m 603 674 l 583 628 l 608 628 l 608 357 q 596 276 608 314 q 560 204 583 238 l 540 157 q 444 44 508 88 q 297 0 379 0 q 217 13 258 0 q 111 76 157 32 q 44 181 65 121 q 31 239 33 210 q 29 303 29 268 l 29 551 q 31 616 29 588 q 44 675 33 644 q 49 687 47 682 q 53 699 50 692 l 75 747 l 82 767 q 148 872 101 828 q 257 936 194 917 q 298 945 278 943 q 339 947 318 947 q 438 926 390 947 q 521 867 485 904 q 581 781 557 831 q 610 674 604 731 l 603 674 m 581 600 l 289 600 l 289 433 l 414 433 l 414 357 q 392 303 414 325 q 340 279 371 281 l 338 279 q 285 300 307 279 q 260 351 263 321 q 258 408 257 379 q 258 464 258 436 q 260 490 260 478 q 260 517 260 503 q 260 544 260 531 q 258 569 260 557 q 258 626 258 597 q 260 683 257 654 q 285 733 263 713 q 338 754 307 754 l 340 754 q 384 738 365 753 q 410 700 403 724 l 579 700 q 554 786 575 746 q 501 856 533 826 q 427 902 469 885 q 339 919 385 919 q 265 910 299 919 q 169 851 210 892 q 108 757 128 811 q 97 702 99 729 q 94 642 94 675 l 94 392 q 97 332 94 360 q 108 278 99 304 q 169 182 128 222 q 265 125 210 142 q 339 114 297 114 q 433 133 389 114 q 510 185 476 153 q 562 263 543 218 q 581 357 581 307 l 581 600 m 304 319 q 339 307 319 307 q 350 310 342 307 l 350 319 l 304 319 z "},"h":{"ha":642,"x_min":32,"x_max":610,"o":"m 557 897 l 557 140 l 449 140 l 449 465 l 232 465 l 232 140 l 124 140 l 124 897 l 232 897 l 232 574 l 449 574 l 449 897 l 557 897 l 557 897 m 529 168 l 529 871 l 475 871 l 475 546 l 206 546 l 206 871 l 151 871 l 151 168 l 206 168 l 206 492 l 475 492 l 475 168 l 529 168 l 529 168 m 283 86 l 246 0 l 32 0 l 32 854 l 68 935 l 68 947 l 290 947 l 290 628 l 351 628 l 351 854 l 389 935 l 389 947 l 610 947 l 610 86 l 604 86 l 567 0 l 351 0 l 351 321 l 290 321 l 290 86 l 283 86 m 96 919 l 96 114 l 263 114 l 263 433 l 417 433 l 417 114 l 582 114 l 582 919 l 417 919 l 417 600 l 263 600 l 263 919 l 96 919 z "},"i":{"ha":342,"x_min":43,"x_max":301,"o":"m 244 893 l 244 151 l 136 151 l 136 893 l 244 893 l 244 893 m 218 178 l 218 867 l 164 867 l 164 178 l 218 178 l 218 178 m 294 86 l 257 0 l 43 0 l 43 856 l 79 936 l 79 949 l 301 949 l 301 86 l 294 86 m 107 921 l 107 114 l 274 114 l 274 921 l 107 921 z "},"j":{"ha":642,"x_min":26,"x_max":606,"o":"m 550 608 q 550 579 550 601 q 550 527 550 557 q 550 464 550 497 q 549 401 550 431 q 548 349 549 371 q 546 319 547 326 q 503 224 535 263 q 430 167 472 186 q 340 146 388 147 q 250 162 293 144 q 173 215 207 179 q 125 307 139 251 l 240 307 q 276 269 254 283 q 324 253 299 256 q 373 260 349 251 q 415 290 397 269 q 438 335 435 313 q 442 386 442 358 l 442 488 l 442 897 l 550 897 l 550 608 m 524 361 l 524 869 l 469 869 l 469 447 q 471 395 469 421 q 468 342 472 369 q 451 292 464 313 q 415 253 439 271 q 367 230 393 236 q 315 227 340 224 q 266 244 289 231 q 226 279 243 257 l 164 279 q 220 208 185 233 q 295 176 256 183 q 376 177 335 168 q 449 210 417 186 q 503 273 482 235 q 524 361 524 311 m 65 351 q 64 360 64 353 l 282 360 q 304 322 289 336 q 336 307 319 308 q 350 310 339 307 l 350 317 q 349 344 350 332 q 349 372 349 357 l 349 854 l 385 936 l 385 947 l 606 947 l 606 392 q 604 326 606 356 q 592 267 603 297 q 578 234 586 250 q 558 204 569 218 l 544 169 q 539 158 540 164 q 472 67 515 107 q 375 11 428 28 q 334 2 354 4 q 294 0 314 0 q 196 21 242 0 q 114 77 150 42 q 55 161 78 113 q 26 267 32 210 l 65 351 m 578 246 l 579 247 l 579 249 l 578 246 m 94 332 q 119 246 99 286 q 172 176 139 206 q 246 129 204 146 q 335 113 288 113 q 408 122 374 113 q 504 181 463 140 q 565 275 546 222 q 576 331 575 303 q 578 392 578 358 l 578 919 l 413 919 l 413 681 l 413 515 l 413 463 q 414 406 414 435 q 411 350 414 378 q 387 300 408 321 q 336 279 365 279 l 332 279 q 288 294 308 281 q 261 332 268 308 l 94 332 z "},"k":{"ha":642,"x_min":39,"x_max":622,"o":"m 533 889 l 344 519 l 533 149 l 413 149 l 242 485 l 242 149 l 133 149 l 133 889 l 242 889 l 242 553 l 413 889 l 533 889 l 533 889 m 315 519 l 489 863 l 429 863 l 254 519 l 429 175 l 489 175 l 315 519 l 315 519 m 214 175 l 214 575 l 214 597 l 214 863 l 161 863 l 161 175 l 214 175 l 214 175 m 372 947 l 622 947 l 407 517 l 621 86 l 611 86 l 574 0 l 335 0 l 294 86 l 292 86 l 254 0 l 39 0 l 39 854 l 76 936 l 76 947 l 297 947 l 297 797 l 372 947 m 576 114 l 376 517 l 576 919 l 390 919 l 269 678 l 269 778 l 269 919 l 104 919 l 104 114 l 269 114 l 269 254 l 271 363 l 390 114 l 576 114 z "},"l":{"ha":563,"x_min":40,"x_max":536,"o":"m 482 251 l 482 146 l 133 146 l 133 199 l 133 304 l 133 886 l 242 886 l 242 251 l 482 251 l 482 251 m 456 172 l 456 225 l 215 225 l 215 860 l 161 860 l 161 172 l 456 172 l 456 172 m 531 85 l 490 0 l 40 0 l 40 854 l 76 936 l 76 947 l 299 947 l 299 307 l 536 307 l 536 85 l 531 85 m 104 919 l 104 113 l 507 113 l 507 279 l 271 279 l 271 919 l 104 919 z "},"m":{"ha":972,"x_min":40,"x_max":939,"o":"m 886 663 l 886 144 l 779 144 l 779 356 l 779 410 l 779 597 q 779 623 779 607 q 778 656 779 639 q 776 690 778 674 q 769 717 774 706 q 729 761 756 744 q 671 778 703 778 q 613 761 639 778 q 572 717 586 744 q 566 690 568 706 q 563 656 564 674 q 563 623 563 639 q 563 597 563 607 l 563 388 l 563 356 l 563 144 l 454 144 l 454 356 l 454 408 l 454 597 q 455 623 454 607 q 455 656 456 639 q 452 690 454 674 q 444 717 450 706 q 404 761 431 744 q 346 778 378 778 q 288 761 314 778 q 247 717 261 744 q 241 690 243 706 q 238 656 239 674 q 238 623 238 639 q 238 597 238 607 l 238 388 l 238 356 l 238 144 l 131 144 l 131 663 q 163 785 131 731 q 263 867 196 839 q 393 878 328 893 q 454 854 428 871 q 508 818 481 838 q 563 854 536 838 q 624 878 589 871 q 754 867 689 893 q 853 785 821 840 q 886 663 886 731 m 860 171 l 860 656 q 831 772 860 721 q 735 846 801 822 q 667 858 697 858 q 611 847 638 857 q 560 821 585 838 q 508 785 535 804 q 457 821 482 804 q 406 847 432 838 q 349 858 379 857 q 282 846 319 858 q 186 772 215 822 q 157 656 157 721 l 157 171 l 211 171 l 211 356 l 211 388 l 211 618 q 212 682 211 651 q 233 744 213 713 q 282 788 253 772 q 346 804 311 804 q 410 788 381 804 q 460 744 440 772 q 481 682 481 713 q 482 618 482 651 l 482 408 l 482 356 l 482 171 l 536 171 l 536 356 l 536 388 l 536 618 q 536 682 536 651 q 557 744 536 713 q 606 788 576 772 q 671 804 636 804 q 735 788 706 804 q 783 744 764 772 q 805 682 804 713 q 806 618 806 651 l 806 410 l 806 356 l 806 171 l 860 171 m 679 0 l 679 571 q 674 608 679 594 q 660 630 668 622 q 644 640 653 638 q 626 642 635 642 q 623 642 625 642 q 618 642 621 643 l 618 86 l 611 86 l 574 0 l 360 0 l 360 571 q 354 608 360 594 q 340 630 349 622 q 323 640 332 638 q 307 642 314 642 q 302 642 304 642 q 297 642 300 643 l 297 86 l 292 86 l 254 0 l 40 0 l 40 590 q 63 696 40 650 l 64 700 q 65 703 64 703 l 68 707 l 69 715 l 69 714 l 71 715 l 69 715 l 85 750 q 161 874 103 819 q 247 930 199 910 q 349 950 296 950 q 507 894 435 950 q 665 950 582 950 q 767 931 718 950 q 854 875 815 911 q 916 785 894 835 q 938 679 938 736 l 938 582 q 938 488 938 535 q 938 383 939 440 l 938 86 l 932 86 l 894 0 l 679 0 m 667 756 q 691 752 678 756 q 716 739 704 749 q 736 710 728 729 q 744 661 744 692 l 744 114 l 910 114 l 910 286 q 910 679 913 482 q 835 854 910 783 q 756 904 800 886 q 665 922 713 922 q 590 909 626 922 q 521 872 553 896 l 507 863 l 493 872 q 424 909 461 896 q 349 922 388 922 q 258 904 301 922 q 179 854 214 886 q 124 775 143 819 q 104 679 104 731 q 103 482 103 581 q 104 285 104 383 l 104 114 l 271 114 l 271 661 q 278 710 271 692 q 298 739 286 729 q 323 752 310 749 q 347 756 336 756 q 372 752 358 756 q 397 739 385 749 q 416 710 408 729 q 424 661 424 692 l 424 114 l 590 114 l 590 661 q 599 710 590 692 q 618 739 607 729 q 642 752 629 749 q 667 756 656 756 z "},"n":{"ha":642,"x_min":35,"x_max":615,"o":"m 528 790 q 551 738 544 764 q 560 686 558 713 q 561 633 563 660 q 560 579 560 606 l 560 146 l 451 146 l 451 358 l 451 413 l 451 603 q 451 629 451 613 q 451 663 451 646 q 448 695 450 679 q 442 722 446 711 q 401 768 428 751 q 343 785 375 785 q 285 768 311 785 q 244 722 258 751 q 238 695 240 711 q 235 663 236 679 q 235 629 235 646 q 235 603 235 613 l 235 392 l 235 358 l 235 146 l 126 146 l 126 579 q 125 633 126 607 q 126 686 124 660 q 135 738 128 713 q 160 790 143 764 q 238 865 189 838 q 343 892 286 892 q 449 865 400 892 q 528 790 497 838 m 532 572 q 533 619 532 593 q 532 670 533 644 q 526 722 531 696 q 510 768 521 747 q 440 839 485 813 q 343 865 396 865 q 247 839 290 865 q 178 768 203 813 q 160 722 165 747 q 154 670 156 696 q 153 619 153 644 q 154 572 154 593 l 154 172 l 208 172 l 208 358 l 208 392 l 208 624 q 209 688 208 657 q 231 751 210 719 q 279 795 250 779 q 343 811 308 811 q 408 795 378 811 q 457 751 438 779 q 478 688 478 719 q 478 624 478 657 l 478 413 l 478 358 l 478 172 l 532 172 l 532 572 m 343 947 q 467 917 408 947 q 561 835 525 888 q 608 725 601 778 q 614 611 615 672 l 614 85 l 607 85 l 569 0 l 357 0 l 357 569 q 351 606 357 592 q 338 627 346 619 q 319 637 329 635 q 301 639 310 639 q 298 640 300 639 q 293 639 296 640 l 293 85 l 288 85 l 249 0 l 35 0 l 35 522 q 38 612 35 569 q 60 697 40 654 q 63 704 61 701 q 65 710 64 707 l 83 751 q 125 835 93 793 q 221 917 164 888 q 343 947 278 947 m 586 611 q 581 719 588 668 q 540 818 575 769 q 453 893 506 867 q 343 919 401 919 q 233 893 285 919 q 146 818 182 867 q 106 719 111 769 q 100 611 100 669 l 100 592 l 100 113 l 265 113 l 265 658 q 274 708 265 689 q 294 736 282 726 q 319 749 306 746 q 343 753 332 753 q 367 749 353 753 q 392 736 381 746 q 413 708 404 726 q 421 658 421 689 l 421 113 l 586 113 l 586 592 l 586 611 z "},"o":{"ha":642,"x_min":31,"x_max":610,"o":"m 486 832 q 528 780 514 807 q 549 725 543 753 q 556 667 556 697 q 556 604 556 636 l 556 357 q 538 272 556 310 q 492 206 521 233 q 426 162 464 178 q 347 144 388 146 q 267 156 307 142 q 192 201 226 169 q 150 253 164 226 q 130 308 136 281 q 123 367 124 336 q 122 429 122 397 l 122 676 q 160 797 122 746 q 253 871 197 847 q 372 887 308 894 q 486 832 435 879 m 528 583 q 529 640 528 613 q 527 694 531 667 q 514 747 524 721 q 482 799 504 772 q 382 858 439 847 q 274 851 325 869 q 186 786 222 832 q 150 676 150 740 l 150 450 q 149 394 150 421 q 151 340 147 367 q 164 286 154 313 q 196 235 174 260 q 297 175 239 186 q 406 183 354 164 q 492 247 457 201 q 528 357 528 292 l 528 583 m 474 492 q 474 455 474 481 q 474 401 475 429 q 472 347 474 372 q 465 308 469 321 q 401 238 444 257 q 315 226 358 218 q 238 268 271 235 q 204 357 204 301 l 204 542 q 203 578 204 553 q 203 633 203 604 q 206 687 204 661 q 214 725 208 713 q 278 796 235 776 q 365 807 321 815 q 441 765 408 799 q 474 676 474 732 l 474 492 m 447 349 q 449 431 450 390 q 447 513 447 472 l 447 676 q 432 733 447 710 q 394 769 417 757 q 343 783 371 782 q 292 773 315 783 q 251 740 268 763 q 231 683 233 718 q 229 602 228 643 q 231 521 231 561 l 231 357 q 263 278 231 306 q 335 250 296 251 q 409 273 375 249 q 447 349 443 297 m 299 0 q 160 38 224 0 q 61 142 97 75 q 38 205 46 172 q 31 282 31 238 l 31 571 q 38 642 31 611 q 57 701 44 672 l 61 711 l 63 713 l 61 713 l 75 742 l 76 746 q 97 801 85 774 q 199 908 135 868 q 339 947 263 947 q 478 908 414 947 q 579 801 543 868 q 602 737 594 769 q 610 660 610 704 l 610 371 q 602 293 610 326 q 579 231 594 260 l 565 207 l 546 165 l 546 167 l 544 165 l 546 165 l 535 142 q 437 38 500 75 q 299 0 374 0 m 96 371 q 124 243 96 294 q 213 147 156 182 q 339 113 269 113 q 465 147 407 113 q 554 243 522 182 q 575 301 568 271 q 582 371 582 331 l 582 660 q 575 731 582 700 q 554 790 568 763 q 465 885 522 850 q 339 919 407 919 q 213 885 269 919 q 124 790 156 850 q 102 731 108 763 q 96 660 96 700 l 96 371 m 339 278 q 284 301 307 278 q 261 356 261 324 l 261 661 q 265 698 261 679 q 288 735 268 717 q 339 753 307 753 q 393 731 371 753 q 415 676 415 708 l 415 371 q 412 335 415 354 q 389 297 408 315 q 365 283 378 289 q 339 278 353 278 m 292 690 l 300 708 l 299 707 l 292 692 l 292 690 m 289 356 q 304 321 289 336 q 339 306 319 306 q 351 307 346 306 l 351 588 q 335 624 351 608 q 299 640 319 640 q 294 640 296 640 q 289 639 292 639 l 289 356 z "},"p":{"ha":642,"x_min":38,"x_max":615,"o":"m 556 731 q 550 608 571 668 q 478 507 529 547 q 420 474 449 483 q 362 461 392 464 q 301 460 332 458 q 239 461 271 461 l 239 138 l 131 138 l 131 893 q 176 893 139 893 q 256 893 214 893 q 335 892 299 893 q 381 890 372 892 q 492 836 444 879 q 556 731 539 793 m 436 511 q 515 592 489 539 q 533 704 542 646 q 485 806 525 763 q 386 863 444 850 q 343 865 376 864 q 272 867 310 867 q 201 867 235 867 q 158 867 168 867 l 158 164 l 213 164 l 213 489 q 269 488 240 488 q 326 488 297 488 q 383 492 356 488 q 436 511 410 496 m 481 678 q 454 596 481 632 q 385 547 428 560 q 351 543 375 544 q 299 542 326 542 q 246 542 271 542 q 213 542 221 542 l 213 813 q 246 813 221 813 q 299 813 271 813 q 351 811 326 813 q 385 807 375 810 q 454 758 428 794 q 481 678 481 722 m 376 574 q 433 613 411 585 q 454 678 454 642 q 433 742 454 714 q 376 781 411 771 q 349 783 369 782 q 308 785 329 785 q 266 785 286 785 q 239 785 246 785 l 239 569 q 266 569 246 569 q 308 569 286 569 q 349 570 329 569 q 376 574 369 571 m 422 676 q 399 622 422 644 q 344 600 376 600 l 268 600 l 268 754 l 344 754 q 399 731 376 754 q 422 676 422 708 m 339 628 q 304 640 324 640 l 296 640 l 296 628 l 339 628 m 251 0 l 38 0 l 38 854 l 74 935 l 74 949 l 344 949 q 448 928 400 949 q 536 868 496 907 q 615 676 615 786 q 603 594 615 633 q 567 521 590 554 l 553 490 q 550 484 551 488 q 547 478 549 481 q 451 364 517 407 q 304 321 385 321 l 296 321 l 296 86 l 289 86 l 251 0 m 101 114 l 268 114 l 268 433 l 344 433 q 439 452 394 433 q 516 504 483 471 q 568 582 549 538 q 588 676 588 626 q 569 769 588 725 q 518 850 551 814 q 344 919 444 919 l 101 919 l 101 114 z "},"q":{"ha":642,"x_min":33,"x_max":613,"o":"m 560 639 l 560 404 q 558 338 560 365 q 550 288 557 311 q 528 242 543 265 q 488 188 514 218 l 529 86 l 414 86 l 388 139 q 327 139 356 138 q 272 149 299 140 q 222 173 246 157 q 175 217 199 189 q 143 270 153 243 q 130 325 133 297 q 127 381 126 353 q 128 440 128 410 l 128 676 q 160 788 128 738 q 246 867 192 839 q 360 888 300 893 q 471 847 421 883 q 543 755 526 806 q 560 639 560 704 m 532 614 q 531 670 532 643 q 523 723 529 697 q 503 772 517 749 q 465 815 490 794 q 366 862 424 854 q 256 842 308 869 q 178 766 201 814 q 154 660 154 718 l 154 438 q 153 382 154 410 q 156 328 153 354 q 170 277 160 303 q 203 228 181 251 q 249 190 225 203 q 299 172 274 176 q 351 167 324 167 q 407 168 378 167 l 431 113 l 489 113 l 454 193 q 494 244 479 224 q 518 284 510 264 q 529 328 526 304 q 532 392 532 353 l 532 614 m 479 488 q 479 451 479 476 q 478 396 479 425 q 476 341 478 367 q 468 303 474 315 q 404 232 447 251 q 317 221 361 213 q 241 263 274 229 q 208 354 208 297 l 208 536 q 208 574 208 549 q 208 629 208 600 q 210 685 208 658 q 215 724 211 711 q 281 794 236 775 q 369 806 325 814 q 446 763 413 797 q 479 674 479 729 l 479 488 m 451 343 q 453 428 454 388 q 451 510 451 469 l 451 674 q 436 732 451 708 q 398 768 421 756 q 347 782 375 781 q 296 772 319 783 q 255 738 272 761 q 235 681 238 715 q 233 600 232 640 q 235 518 235 560 l 235 354 q 267 274 235 301 q 338 245 299 247 q 413 267 378 243 q 451 343 447 292 m 390 300 q 367 285 379 289 q 342 282 354 282 q 287 303 310 282 q 264 357 264 325 l 264 660 q 267 696 264 678 q 292 732 271 714 q 339 751 310 751 q 392 728 371 751 q 414 674 414 706 l 414 369 q 411 335 414 354 q 390 300 408 317 m 292 357 q 307 322 292 336 q 342 308 322 308 q 353 311 347 308 l 353 585 q 338 623 353 607 q 299 639 322 639 q 292 639 292 639 l 292 357 m 299 0 q 180 30 236 0 q 88 110 124 60 q 40 219 47 164 q 33 332 33 274 l 33 346 l 33 360 l 33 372 q 33 481 33 436 q 33 556 33 526 q 34 600 33 585 q 36 622 35 615 q 45 658 40 640 q 57 692 50 676 l 57 694 l 60 697 l 79 740 q 132 846 93 799 q 221 917 171 893 q 278 938 249 929 q 339 947 308 947 q 441 927 393 947 q 526 873 489 907 q 585 792 563 839 q 610 692 607 746 l 610 601 l 610 574 l 610 561 l 610 421 q 604 308 610 358 q 565 207 599 258 l 551 176 l 613 32 l 606 32 l 568 -51 l 333 -51 l 315 0 l 299 0 m 146 211 q 230 140 178 167 q 339 113 282 113 l 350 113 l 367 115 l 390 61 l 569 61 l 517 188 l 525 199 q 559 251 547 225 q 576 303 571 276 q 583 360 582 331 q 583 421 583 389 l 583 561 l 583 601 l 583 689 q 560 779 581 738 q 506 851 539 821 q 431 899 474 882 q 339 917 388 917 q 285 911 311 917 q 232 890 258 906 q 144 817 179 867 q 100 708 108 767 q 98 692 99 704 q 97 652 97 679 q 97 580 97 625 q 97 467 97 535 l 97 447 l 97 421 q 98 366 97 393 q 103 313 99 339 q 117 262 107 288 q 146 211 126 236 z "},"r":{"ha":642,"x_min":35,"x_max":613,"o":"m 556 333 l 556 136 l 449 136 l 449 260 q 449 284 449 267 q 449 321 449 301 q 447 358 449 340 q 444 382 446 375 q 413 433 436 413 q 357 458 389 454 q 297 461 326 463 q 236 460 267 460 l 236 136 l 129 136 l 129 892 l 311 892 q 399 883 358 892 q 479 840 440 875 q 535 768 515 810 q 556 681 554 726 q 537 590 557 628 q 489 514 517 553 q 519 469 507 489 q 540 431 532 450 q 552 388 549 411 q 556 333 556 365 m 529 163 l 529 349 q 523 397 529 375 q 506 439 517 419 q 483 476 496 458 q 456 514 469 494 q 503 581 481 547 q 528 660 525 614 q 517 742 532 703 q 472 811 503 782 q 401 855 438 844 q 321 865 365 865 l 156 865 l 156 163 l 210 163 l 210 486 l 342 486 q 404 471 375 486 q 453 426 433 456 q 474 363 474 394 q 475 297 475 331 l 475 163 l 529 163 m 475 675 q 449 594 475 631 q 379 546 422 558 q 347 542 371 543 q 294 540 322 540 q 242 540 267 540 q 210 540 218 540 l 210 811 q 242 811 218 811 q 294 811 267 811 q 347 810 322 811 q 379 806 371 808 q 449 757 422 793 q 475 675 475 721 m 372 572 q 428 611 407 583 q 449 675 449 639 q 428 740 449 711 q 372 779 407 768 q 346 782 365 781 q 304 783 326 783 q 263 783 282 783 q 236 783 243 783 l 236 568 q 263 568 243 568 q 304 568 282 568 q 346 569 326 568 q 372 572 365 569 m 363 751 q 403 723 388 743 q 419 676 419 703 q 403 631 419 651 q 363 603 388 610 q 329 599 347 599 q 308 600 314 599 l 289 600 l 267 600 l 267 753 l 289 753 q 297 753 293 753 q 308 754 301 753 l 329 754 q 347 753 339 754 q 363 751 356 753 m 336 626 q 326 633 332 629 q 315 639 321 636 q 294 642 301 642 l 294 628 l 314 628 q 329 626 321 626 l 336 626 m 356 0 l 356 213 q 354 265 356 240 q 343 300 353 289 q 319 315 333 311 q 294 321 306 319 l 294 86 l 288 86 l 250 0 l 35 0 l 35 854 l 71 935 l 71 947 l 299 947 q 371 944 336 947 q 437 930 406 940 q 497 899 468 919 q 554 844 526 879 q 598 764 583 808 q 613 676 613 719 q 601 598 613 636 q 567 525 590 560 l 561 514 q 605 415 597 464 q 613 308 613 365 l 613 86 l 607 86 l 568 0 l 356 0 m 321 435 q 363 429 340 435 q 403 404 386 424 q 417 361 415 389 q 419 303 419 333 l 419 292 l 419 114 l 585 114 l 585 308 q 578 410 585 364 q 538 503 571 457 l 526 517 l 538 531 q 585 678 586 597 q 533 826 585 760 q 481 878 508 860 q 425 906 454 896 q 365 917 396 915 q 299 919 333 919 l 268 919 l 236 919 l 99 919 l 99 114 l 267 114 l 267 433 l 289 433 q 301 435 296 433 l 321 435 z "},"s":{"ha":642,"x_min":29,"x_max":611,"o":"m 550 732 l 435 732 q 404 765 422 751 q 365 783 386 778 q 322 783 344 788 q 281 767 300 779 q 249 735 261 754 q 234 696 238 717 q 235 653 231 675 q 256 614 240 632 q 289 585 271 594 q 333 574 307 575 q 376 569 356 571 q 418 558 397 567 q 492 513 460 543 q 542 442 524 482 q 558 355 560 399 q 538 272 556 311 q 487 203 519 233 q 410 160 454 174 q 320 149 365 144 q 238 174 275 154 q 172 229 200 194 q 132 308 143 264 l 247 308 q 278 276 260 289 q 317 258 296 263 q 360 257 338 253 q 401 274 382 261 q 433 305 421 286 q 448 344 444 324 q 446 387 451 365 q 426 426 440 408 q 393 455 411 446 q 349 467 375 464 q 306 471 326 468 q 264 481 285 474 q 190 527 222 496 q 140 599 158 558 q 124 684 122 640 q 144 767 126 728 q 195 835 163 806 q 272 879 228 864 q 362 889 317 893 q 444 865 407 885 q 510 810 482 844 q 550 732 539 776 m 449 758 l 513 758 q 459 824 493 799 q 385 859 425 850 q 302 860 344 868 q 224 824 260 851 q 170 758 188 796 q 152 681 153 721 q 169 601 151 640 q 222 535 186 563 q 300 497 256 507 q 340 494 319 493 q 381 488 361 494 q 449 441 424 475 q 476 363 475 407 q 450 281 476 314 q 385 236 424 249 q 304 233 346 224 q 233 282 263 243 l 169 282 q 223 216 189 242 q 297 181 257 190 q 380 179 338 171 q 458 215 422 188 q 511 281 493 243 q 530 360 529 319 q 513 439 531 400 q 460 506 494 478 q 382 542 426 531 q 342 546 363 546 q 301 553 321 546 q 233 599 258 565 q 206 676 207 633 q 232 757 206 724 q 297 803 258 790 q 378 807 336 817 q 449 758 419 797 m 486 79 q 387 15 438 31 q 300 0 336 0 q 199 19 249 0 q 113 72 150 38 q 29 268 42 140 l 67 351 q 65 361 65 356 l 154 361 q 92 415 119 383 q 50 485 65 446 q 31 589 31 533 q 54 696 31 644 q 58 710 56 701 l 75 746 q 146 868 92 814 q 247 933 196 918 q 336 949 299 949 q 438 929 389 949 q 525 874 486 910 q 582 790 561 842 q 611 672 603 738 l 604 672 l 567 588 l 479 588 q 588 460 551 543 q 610 357 610 404 q 598 278 610 317 q 563 207 586 240 l 546 167 l 542 158 q 486 79 521 114 m 96 333 q 169 181 104 242 q 249 131 204 149 q 340 113 293 113 q 419 126 374 113 q 510 185 465 140 q 576 308 563 238 q 563 450 590 379 q 474 560 533 519 q 338 600 414 600 q 295 613 314 600 q 267 647 276 625 q 263 692 258 669 q 283 731 267 715 q 338 753 306 753 q 383 738 363 753 q 411 700 404 724 l 581 700 q 556 784 575 744 q 506 853 538 824 q 426 903 471 885 q 336 921 382 921 q 256 907 301 921 q 167 849 211 893 q 99 725 114 796 q 113 583 85 654 q 202 474 142 514 q 338 433 263 433 q 381 421 361 433 q 410 385 400 408 q 413 342 418 364 q 393 303 408 319 q 339 279 369 279 q 292 294 313 279 q 264 333 272 310 l 96 333 m 311 318 q 329 308 321 310 q 311 318 324 315 m 328 629 q 317 635 321 632 q 306 640 313 639 q 328 629 317 629 z "},"t":{"ha":589,"x_min":31,"x_max":558,"o":"m 506 892 l 506 786 l 367 786 l 367 151 l 258 151 l 258 786 l 122 786 l 122 892 l 506 892 l 506 892 m 478 813 l 478 865 l 149 865 l 149 813 l 285 813 l 285 178 l 339 178 l 339 813 l 478 813 l 478 813 m 67 936 l 67 947 l 558 947 l 558 726 l 553 726 l 514 640 l 422 640 l 422 86 l 415 86 l 378 0 l 164 0 l 164 640 l 31 640 l 31 854 l 67 936 m 94 919 l 94 754 l 228 754 l 228 114 l 394 114 l 394 754 l 531 754 l 531 919 l 94 919 z "},"u":{"ha":642,"x_min":32,"x_max":611,"o":"m 558 464 q 560 409 558 436 q 559 356 561 382 q 550 303 557 329 q 526 250 543 276 q 449 174 497 201 q 343 147 400 147 q 238 174 286 147 q 158 250 189 201 q 135 303 142 276 q 126 356 128 329 q 125 409 124 382 q 126 464 126 436 l 126 894 l 235 894 l 235 688 l 235 633 l 235 440 q 235 413 235 429 q 235 379 235 397 q 238 345 236 361 q 244 318 240 329 q 285 272 258 289 q 343 254 311 254 q 401 272 375 254 q 442 318 428 289 q 448 345 446 329 q 451 379 450 361 q 451 413 451 397 q 451 440 451 429 l 451 654 l 451 688 l 451 894 l 558 894 l 558 464 m 508 272 q 526 319 521 293 q 532 372 531 344 q 533 424 533 399 q 532 471 532 450 l 532 868 l 478 868 l 478 688 l 478 654 l 478 419 q 477 353 478 385 q 456 289 476 321 q 407 244 436 261 q 343 228 378 228 q 278 244 308 228 q 229 289 249 261 q 208 353 208 321 q 208 419 208 385 l 208 633 l 208 688 l 208 868 l 154 868 l 154 471 q 153 424 154 450 q 154 372 153 399 q 160 319 156 344 q 176 272 165 293 q 246 200 201 226 q 343 174 290 174 q 440 200 396 174 q 508 272 483 226 m 300 0 q 162 38 225 0 q 63 142 99 75 q 40 204 47 171 q 32 282 32 238 l 32 854 l 69 935 l 69 947 l 292 947 l 292 372 q 297 338 292 351 q 308 317 301 325 q 324 308 315 310 q 340 306 333 306 q 353 307 347 306 l 353 854 l 389 935 l 389 947 l 611 947 l 611 371 q 579 229 611 285 l 565 208 l 547 167 q 544 160 547 165 l 535 142 q 491 87 517 113 q 435 42 465 61 q 369 11 404 22 q 300 0 335 0 m 97 371 q 125 243 97 294 q 215 147 157 182 q 340 113 272 113 q 465 147 408 113 q 554 243 522 182 q 576 301 569 271 q 583 371 583 331 l 583 919 l 417 919 l 417 372 q 408 323 417 342 q 389 294 400 304 q 364 281 378 285 q 340 278 350 278 q 316 281 329 278 q 291 294 303 285 q 272 323 279 304 q 264 372 264 342 l 264 919 l 97 919 l 97 371 z "},"v":{"ha":642,"x_min":33,"x_max":611,"o":"m 543 893 l 424 151 l 249 151 l 129 893 l 239 893 l 336 288 l 433 893 l 543 893 l 543 893 m 400 178 l 511 867 l 457 867 l 357 246 l 315 246 l 215 867 l 161 867 l 271 178 l 326 178 l 346 178 l 400 178 l 400 178 m 386 949 l 611 949 l 478 86 l 471 86 l 433 0 l 168 0 l 33 854 l 71 939 l 69 949 l 294 949 l 328 721 l 350 854 l 383 931 l 386 949 m 451 114 l 579 921 l 411 921 l 340 456 l 317 618 l 269 921 l 101 921 l 229 114 l 451 114 z "},"w":{"ha":967,"x_min":31,"x_max":931,"o":"m 879 890 l 879 372 q 846 248 879 303 q 746 165 813 193 q 683 149 714 151 q 617 154 651 147 q 555 178 582 161 q 501 215 528 196 q 447 178 474 196 q 385 154 421 161 q 319 149 350 147 q 256 165 289 151 q 156 248 189 193 q 122 371 122 303 l 122 890 l 231 890 l 231 679 l 231 625 l 231 438 q 231 410 231 426 q 231 377 231 394 q 234 344 232 360 q 240 317 236 328 q 281 272 254 289 q 339 256 307 256 q 397 272 371 256 q 438 317 424 289 q 444 344 442 328 q 447 377 446 360 q 447 410 447 394 q 447 436 447 425 l 447 646 l 447 679 l 447 890 l 556 890 l 556 679 l 556 626 l 556 438 q 555 410 556 426 q 555 377 554 394 q 558 344 556 360 q 564 317 560 328 q 604 272 578 289 q 663 256 631 256 q 721 272 694 256 q 761 317 747 289 q 769 344 767 328 q 772 377 771 360 q 772 410 772 394 q 771 436 771 425 l 771 646 l 771 679 l 771 890 l 879 890 m 853 378 l 853 864 l 799 864 l 799 679 l 799 646 l 799 415 q 798 352 799 383 q 776 289 797 321 q 727 245 757 261 q 663 229 697 229 q 599 245 628 229 q 550 289 569 261 q 528 352 529 321 q 528 415 528 383 l 528 626 l 528 679 l 528 864 l 474 864 l 474 679 l 474 646 l 474 415 q 473 352 474 383 q 451 289 472 321 q 403 245 432 261 q 339 229 374 229 q 274 245 304 229 q 225 289 244 261 q 204 352 204 321 q 204 415 204 383 l 204 625 l 204 679 l 204 864 l 150 864 l 150 378 q 178 262 150 313 q 274 188 207 211 q 341 175 311 175 q 397 185 371 175 q 449 212 424 194 q 501 249 474 229 q 553 212 528 229 q 604 185 578 194 q 660 174 631 175 q 728 188 690 174 q 824 262 794 211 q 853 378 853 313 m 708 947 l 931 947 l 931 354 q 882 203 928 271 l 879 193 l 869 175 l 869 176 l 867 169 l 867 168 l 865 165 l 865 164 l 863 156 q 837 112 851 132 q 803 72 822 92 q 718 19 767 39 q 618 0 669 0 q 535 12 575 0 q 463 50 496 24 l 458 54 q 384 13 425 26 q 300 0 343 0 q 200 19 247 0 q 114 72 153 39 q 55 160 75 108 q 32 265 35 213 q 31 366 31 314 q 31 486 31 418 q 31 643 31 554 q 32 854 32 732 l 68 936 l 68 947 l 290 947 l 290 374 q 295 338 290 351 q 308 318 300 325 q 324 309 315 311 q 339 307 332 307 q 351 308 347 307 l 351 854 l 389 936 l 389 947 l 610 947 l 610 374 q 615 338 610 351 q 627 318 619 325 q 644 309 635 311 q 660 307 653 307 q 672 308 667 307 l 672 854 l 708 936 l 708 947 m 900 240 q 901 243 901 242 l 900 240 m 736 374 q 728 324 736 343 q 708 296 719 306 q 683 283 697 286 q 660 279 669 279 q 635 283 649 279 q 610 296 622 286 q 590 324 599 306 q 582 374 582 343 l 582 919 l 417 919 l 417 374 q 408 324 417 343 q 388 296 400 306 q 363 283 376 286 q 339 279 350 279 q 315 283 328 279 q 290 296 301 286 q 270 324 278 306 q 263 374 263 343 l 263 919 l 96 919 l 96 747 q 96 354 93 553 q 115 259 96 304 q 171 179 135 214 q 249 130 206 147 q 340 113 293 113 q 416 125 379 113 q 485 163 453 138 l 499 174 l 513 163 q 658 113 576 113 q 749 130 704 113 q 826 179 793 147 q 882 259 863 214 q 903 354 901 304 q 903 552 904 454 q 903 747 903 650 l 903 919 l 736 919 l 736 374 z "},"x":{"ha":642,"x_min":11,"x_max":631,"o":"m 549 889 l 397 515 l 549 140 l 432 140 l 339 371 l 246 140 l 129 140 l 281 515 l 129 889 l 246 889 l 339 660 l 432 889 l 549 889 m 368 515 l 508 863 l 450 863 l 339 588 l 228 863 l 169 863 l 310 515 l 169 168 l 228 168 l 339 443 l 450 168 l 508 168 l 368 515 m 631 947 l 458 517 l 493 428 q 564 253 526 344 q 631 85 601 161 l 622 85 l 583 0 l 353 0 l 301 128 l 285 85 l 281 85 l 243 0 l 11 0 l 63 128 l 182 426 q 140 531 163 476 q 97 641 118 586 q 53 750 75 696 q 11 854 31 804 l 50 939 l 46 947 l 285 947 l 338 818 q 353 854 343 838 l 357 863 l 392 947 l 631 947 m 428 517 l 589 919 l 410 919 l 338 740 l 267 919 l 88 919 l 249 517 l 88 113 l 267 113 l 338 292 l 410 113 l 589 113 l 428 517 z "},"y":{"ha":642,"x_min":31,"x_max":610,"o":"m 556 901 q 557 761 556 831 q 556 621 558 692 q 543 551 554 582 q 508 492 532 521 q 456 446 485 463 q 394 415 426 429 l 394 138 l 286 138 l 286 415 q 225 446 254 429 q 172 492 196 463 q 137 551 149 521 q 124 621 125 582 q 122 761 121 692 q 124 901 124 831 l 232 901 l 232 679 q 232 625 232 651 q 247 571 232 599 q 288 533 263 547 q 340 519 313 519 q 392 533 368 519 q 432 571 417 547 q 448 625 449 599 q 447 679 447 651 l 447 901 l 556 901 m 528 614 q 530 678 531 646 q 529 744 529 711 l 529 874 l 475 874 l 475 644 q 441 537 475 582 q 340 492 407 492 q 239 537 274 492 q 204 644 204 582 l 204 874 l 150 874 l 150 743 q 149 678 150 711 q 151 614 149 646 q 167 551 154 578 q 203 497 179 524 q 255 459 226 472 q 313 432 283 446 l 313 165 l 367 165 l 367 432 q 426 459 397 446 q 478 497 454 472 q 513 551 501 524 q 528 614 525 578 m 192 289 q 74 389 117 322 q 31 538 31 456 l 31 853 l 68 935 l 68 946 l 289 946 l 289 640 q 294 605 289 618 q 306 585 299 592 q 323 576 314 578 q 339 574 332 574 l 351 574 l 351 853 l 388 935 l 388 946 l 610 946 l 610 628 q 597 544 610 583 q 560 469 583 504 l 554 454 l 546 438 l 546 439 l 542 425 q 502 365 525 393 q 450 314 479 336 l 450 86 l 443 86 l 406 0 l 192 0 l 192 289 m 363 579 q 364 581 363 579 l 388 632 l 363 579 m 96 628 q 135 490 96 551 q 242 399 174 429 l 256 394 l 256 113 l 422 113 l 422 394 l 436 399 q 542 490 503 429 q 582 628 582 551 l 582 918 l 415 918 l 415 640 q 408 591 415 610 q 388 563 400 572 q 363 549 376 553 q 339 546 350 546 q 315 549 328 546 q 290 563 301 553 q 269 591 278 572 q 261 640 261 610 l 261 918 l 96 918 l 96 628 z "},"z":{"ha":658,"x_min":28,"x_max":631,"o":"m 578 251 l 578 146 l 119 146 l 119 288 l 472 781 l 119 781 l 119 886 l 578 886 l 578 744 l 226 251 l 578 251 l 578 251 m 551 172 l 551 225 l 175 225 l 551 753 l 551 860 l 147 860 l 147 807 l 524 807 l 147 279 l 147 172 l 551 172 l 551 172 m 618 708 l 588 639 l 354 307 l 631 307 l 631 85 l 625 85 l 588 0 l 28 0 l 28 214 l 64 296 l 64 304 l 297 640 l 28 640 l 28 854 l 64 936 l 64 947 l 631 947 l 631 726 l 618 708 m 604 279 l 283 279 l 604 736 l 604 919 l 92 919 l 92 753 l 413 753 l 92 294 l 92 113 l 604 113 l 604 279 z "},"Z":{"ha":658,"x_min":28,"x_max":631,"o":"m 578 251 l 578 146 l 119 146 l 119 288 l 472 781 l 119 781 l 119 886 l 578 886 l 578 744 l 226 251 l 578 251 l 578 251 m 551 172 l 551 225 l 175 225 l 551 753 l 551 860 l 147 860 l 147 807 l 524 807 l 147 279 l 147 172 l 551 172 l 551 172 m 618 708 l 588 639 l 354 307 l 631 307 l 631 85 l 625 85 l 588 0 l 28 0 l 28 214 l 64 296 l 64 304 l 297 640 l 28 640 l 28 854 l 64 936 l 64 947 l 631 947 l 631 726 l 618 708 m 604 279 l 283 279 l 604 736 l 604 919 l 92 919 l 92 753 l 413 753 l 92 294 l 92 113 l 604 113 l 604 279 z "},"!":{"ha":329,"x_min":35,"x_max":294,"o":"m 236 893 l 236 410 l 132 410 l 132 893 l 236 893 m 210 436 l 210 865 l 158 865 l 158 436 l 210 436 m 183 253 q 219 238 204 253 q 235 200 235 222 q 219 161 235 176 q 183 146 204 146 q 146 161 161 146 q 131 200 131 176 q 146 238 131 222 q 183 253 161 253 m 208 200 q 201 219 208 211 q 183 226 194 226 q 165 219 172 226 q 157 200 157 211 q 165 181 157 189 q 183 172 172 172 q 201 181 194 172 q 208 200 208 189 m 71 947 l 294 947 l 294 353 l 288 353 l 256 281 q 284 243 274 265 q 294 197 294 221 q 269 126 294 156 l 267 119 l 243 68 l 242 63 q 202 17 229 35 q 143 0 175 0 q 67 31 99 0 q 35 107 35 63 q 38 128 35 118 q 44 150 40 139 l 47 157 l 72 213 q 96 267 76 246 l 35 267 l 35 854 l 71 936 l 71 947 m 99 381 l 267 381 l 267 919 l 99 919 l 99 381 m 183 281 q 124 256 149 281 q 99 197 99 231 q 124 138 99 161 q 183 114 149 114 q 242 138 218 114 q 267 197 267 161 q 242 256 267 231 q 183 281 218 281 z "},"?":{"ha":642,"x_min":32,"x_max":617,"o":"m 206 160 l 204 156 l 206 157 l 206 160 m 201 149 q 204 156 201 153 l 201 149 m 342 253 q 378 238 364 253 q 393 200 393 222 q 378 161 393 176 q 342 146 364 146 q 306 161 321 146 q 290 200 290 176 q 306 238 290 222 q 342 253 321 253 m 342 172 q 360 181 353 172 q 368 200 368 189 q 360 219 368 211 q 342 226 353 226 q 323 219 331 226 q 315 200 315 211 q 323 181 315 189 q 342 172 331 172 m 132 732 q 190 833 147 793 q 285 887 232 872 q 394 888 338 901 q 494 831 450 875 q 550 733 535 789 q 550 619 565 676 q 526 564 540 588 q 492 522 511 540 q 448 491 472 504 q 394 465 424 478 l 394 407 l 286 407 l 286 488 q 288 528 286 510 q 311 561 289 546 q 330 568 321 567 q 350 569 339 569 q 389 581 368 571 q 421 604 408 590 q 442 639 433 618 q 441 722 460 685 q 388 775 422 758 q 313 783 353 792 q 247 732 272 775 l 132 732 m 515 603 q 529 699 535 649 q 494 789 524 749 q 417 851 463 832 q 324 867 371 871 q 235 835 276 863 q 169 758 193 807 l 233 758 q 303 808 263 797 q 383 806 344 818 q 449 760 421 793 q 476 679 476 728 q 451 600 476 635 q 385 550 426 565 q 344 543 364 543 q 324 538 331 542 q 314 518 317 533 q 313 476 311 497 q 314 435 314 456 l 368 435 l 368 483 q 453 526 415 503 q 515 603 492 550 m 489 903 q 583 796 550 863 q 610 654 617 729 q 595 589 607 621 q 564 529 583 557 l 543 482 q 451 368 511 413 l 451 353 l 444 353 l 413 282 q 441 244 431 267 q 451 197 451 222 q 424 125 451 157 l 401 76 l 399 67 q 359 19 386 38 q 300 0 332 0 q 224 32 256 0 q 193 107 193 64 q 201 149 193 129 l 206 157 l 207 160 l 206 160 l 231 214 q 254 268 235 244 l 193 268 l 193 413 q 204 476 193 450 l 207 483 l 233 542 q 301 622 246 601 q 317 625 308 625 q 335 626 325 625 l 336 626 q 301 640 322 640 q 254 610 274 640 l 244 588 l 32 588 q 60 701 36 650 l 61 704 l 61 706 l 63 713 l 64 714 l 83 757 q 112 820 94 792 q 153 872 129 849 q 240 928 190 908 q 342 949 289 949 q 417 937 381 949 q 489 903 454 925 m 424 197 q 399 256 424 232 q 340 281 375 281 q 281 256 306 281 q 257 197 257 232 q 281 138 257 163 q 340 114 306 114 q 399 138 375 114 q 424 197 424 163 m 582 657 q 560 784 589 725 q 474 881 532 843 q 342 921 413 921 q 250 903 294 921 q 171 853 206 885 q 120 784 139 822 q 99 701 101 746 l 267 701 q 297 740 275 725 q 342 754 318 754 q 411 708 389 754 q 415 658 422 685 q 388 615 408 632 q 358 602 372 604 q 333 597 344 600 q 311 596 318 597 q 257 501 257 576 l 257 381 l 424 381 l 424 447 l 438 454 q 538 535 500 482 q 582 657 576 589 z "}}}
